<svg id="Logo" xmlns="http://www.w3.org/2000/svg" viewBox="0 0 200 200"><defs><style>.cls-1{fill:#fff;}.cls-2{fill:#231f20;}.cls-3{fill:#0a040c;}</style></defs><title>acao_solidaria_no_sertao---logo---200x200px</title><g id="vetor"><path class="cls-1" d="M45.46,38l.34-.17c.67,0,1.19.08,1.61.12l1,.1a5.75,5.75,0,0,1,.82.13,5.58,5.58,0,0,0,.73.12c.42,0,1.11.14,2.34.27.24,0,.55,0,.91,0s.77.06,1.21.12c.88.12,1.88.28,2.88.44.5.07,1,.17,1.5.26l1.4.24c.87.15,1.59.27,2,.31l.36.07.81.15a4.73,4.73,0,0,1,1.08.26,14.53,14.53,0,0,1,1.75.2c.73.11,1.57.25,2.35.34.57,0-.41-.1-.83-.2l3.57.47c1.39.24,1.72.37.21.17l1,.14,1.17.16,2.87.37,3.5.45L84,43c5.66.66,12.44,1.34,19.23,2s13.55,1.46,19.35,2l2.12.2,2,.16,3.61.28c2.21.19,4,.27,5.29.34-.64-.09-1.75-.17-2.84-.25a25.32,25.32,0,0,1-2.75-.33c2.67.13,3.93.31,5.12.28,1,.31,5.87.43,7.89.71l.78-.11,1.33.13,2,0c.58,0,1.1,0,1.55,0h3.56l1.27,0c.8,0,2.2.06,4.82,0,6.07-.12,8.94-.58,12.32-.69-.5,0-1.84,0-.27-.11a12.45,12.45,0,0,0,2.28-.15,23.88,23.88,0,0,1,2.66-.24l3.62-.38.81-.1.52-.09c.23,0,.23-.08-.17-.07.41,0,1.61-.09,2.39-.07h.5l.23,0s-.14,0-.71.05a15,15,0,0,1,1.83.08,12.31,12.31,0,0,1,1.38.26l-.2-.06-.22-.07-.26-.06-.51-.1-.24,0a6.31,6.31,0,0,1,2.35.66,3.46,3.46,0,0,1,1.21,1.12,6.76,6.76,0,0,1,.72,1.58,15.8,15.8,0,0,1,.48,2s0-.1,0-.25-.05-.36-.08-.56a4.81,4.81,0,0,0-.09-.53c0-.15,0-.24,0-.24a18.79,18.79,0,0,1,.48,3.57,16.45,16.45,0,0,1,0,2.54s0-.75-.06-1.48-.11-1.45-.11-1.45c.17,2.32.12,4.3.11,6.15,0,.46,0,.92,0,1.38s0,.92,0,1.38c0,.93,0,1.88-.07,2.9l.07-1.45c0,.32,0,.73,0,1.22s0,1-.07,1.68-.06,1.32-.1,2.07-.1,1.55-.15,2.39c-.22,3.38-.58,7.46-.89,11.55-.17,2-.29,4.1-.41,6.06s-.2,3.83-.26,5.52-.1,3.2-.13,4.43,0,2.21,0,2.82l.21-2.24,0,2.1,0,2.09c0-.49-.35-2-.29-2.45-.08,2.25-.19,6.86-.34,12.62-.07,2.87-.18,6-.31,9.34-.08,1.65-.14,3.33-.25,5l-.15,2.56c-.06.85-.13,1.71-.19,2.56s-.14,1.7-.21,2.56-.15,1.7-.24,2.54c-.19,1.67-.35,3.33-.6,4.94-.11.81-.21,1.6-.33,2.38s-.26,1.57-.38,2.32l-.18,1.12c-.07.36-.13.71-.2,1.05s-.16.67-.23,1l-.27.95a12.81,12.81,0,0,1-1.42,3.18,7.74,7.74,0,0,1-1.86,2,8.73,8.73,0,0,1-1.95,1c-.32.1-.61.2-.88.27s-.53.12-.75.17-.65.1-.85.13-.38,0-.47,0-.17,0,0-.06l.51-.13.34-.08c-.43.08-.8.12-1.09.16l-.72.09-.72.08a14.68,14.68,0,0,1-2.25,0c-.9,0,.2-.09.7-.1-1.43,0-2.8-.15-2.92-.09a4.33,4.33,0,0,1,1.31.2,1.06,1.06,0,0,0,.51.2s-1.07,0-2.16-.13-2.18-.18-2.18-.18l.2-.08c-.25,0-.52,0-.88,0s-.77,0-1.34,0h-1.46l-.59,0-1.32,0-1.58.08c-7.71.49-15.36,3.41-22.39,3.47a7.21,7.21,0,0,1,1-.11l1-.09c.35,0,.71-.09,1.09-.14l-.79.09c-.28,0-.58,0-.87.06l-.87,0h-.69c.4,0,.42,0,.25.05l-.36,0H136c-.37,0-.75,0-1-.06s-.26,0,.06,0a19.11,19.11,0,0,1-3.94-.69c-1.39-.38-2.81-.87-4.24-1.37s-2.88-1-4.29-1.41c-.72-.19-1.41-.38-2.1-.52-.34-.07-.67-.15-1-.19l-.49-.08-.24,0-.14,0-.17,0-.28.06-.46.14a11.07,11.07,0,0,0-1.3.54c-1,.48-2.15,1.15-3.3,1.84L110,162.53a10.08,10.08,0,0,0-1.49.95,14.57,14.57,0,0,1-2.52.16,5.24,5.24,0,0,1-.74-.07,3.79,3.79,0,0,1-1-.3l-.14-.07-.16-.09-.16-.09-.17-.13a3,3,0,0,1-.62-.69,2.88,2.88,0,0,1-.36-.84,1.8,1.8,0,0,1-.06-.36c0-.11,0-.22,0-.32,0,.09,0,.18,0,.3s0,.25.07.41a2.84,2.84,0,0,0,.18.51,2.44,2.44,0,0,0,.33.54l.22.24.22.2a2.65,2.65,0,0,0,.44.3l.21.11.19.09.36.12a4.62,4.62,0,0,0,1.12.17,7.43,7.43,0,0,0,.94,0c.6,0,1.17-.1,1.71-.17s1-.16,1.41-.24l.25-.18a21.42,21.42,0,0,1,2.2-.38,15,15,0,0,0,2.07-.32,7.06,7.06,0,0,1-1.71.43c-1.11.22-2.6.52-4.1.74,1.35-.19,2.62-.41,3.68-.59a24.25,24.25,0,0,0,2.41-.5c1.13-.16,1.06-.1,1.06-.07s0,0,.2,0l1.13-.08.6-.05h.39l.78.13c.26,0,.54.11.81.16l.42.09.42.11.83.22c.56.17,1.11.34,1.65.53h0c1.3.46,2.48.88,3.62,1.26.56.19,1.12.36,1.66.53l.83.24.82.23.83.21.85.19c.57.13,1.18.22,1.78.33a24.93,24.93,0,0,0,4.11.26h-.09l-.23,0-.33,0a8.61,8.61,0,0,0,.88,0l1-.05.53,0,.56-.05,1.2-.13c1.63-.21,3.43-.52,5.11-.82-1,.16-1.81.23.21-.17s3.5-.7,4.94-1c.71-.14,1.4-.29,2.07-.4.33-.07.67-.12,1-.18l1-.14.4-.09.86-.16.88-.16.38-.06,1.29-.12c.46,0,1-.06,1.48-.09a7.22,7.22,0,0,1,.81,0h.85l.89,0,.92.05c.64,0,1.35.11,2.11.18l2.36.17a44.49,44.49,0,0,0,5.34.06,24.11,24.11,0,0,0,3-.37,14.63,14.63,0,0,0,3.2-1,11.5,11.5,0,0,0,3.07-2,12.44,12.44,0,0,0,2.32-2.86,20.29,20.29,0,0,0,2.35-6.48c.22-1.11.36-2.11.54-3.15l.24-1.55c.09-.52.14-1,.22-1.57l.21-1.56.1-.78.09-.78c.12-1,.24-2.09.34-3.12s.19-2.06.28-3.09.16-2,.24-3c.28-4,.46-7.88.58-11.42s.2-6.77.27-9.53.13-5,.17-6.73v.54c.06-2.56.15-5.45.29-8.58s.31-6.5.59-10,.62-7.27,1-11.1c.17-1.92.32-3.87.46-5.83s.27-3.94.34-5.94.11-4,.14-6a47.59,47.59,0,0,0-.31-6.13,17.39,17.39,0,0,0-.72-3.24,9.54,9.54,0,0,0-1.78-3.24,8.18,8.18,0,0,0-1.44-1.32,7.93,7.93,0,0,0-.82-.51c-.14-.07-.28-.16-.42-.22l-.43-.19a11.66,11.66,0,0,0-3.3-.8,22,22,0,0,0-3-.06c-1,0-1.9.16-2.78.26l-4.9.5-2.33.23c-.38,0-.75.07-1.13.09l-1.1.08-4.16.27c-1.62.07-3.55.07-5.49.11s-3.9.11-5.6.06c1.88.06,1.24.13-.23.12-5.16,0-5.34,0-5.53,0s-.39,0-5.61-.11c-.76,0-1.64,0-2.64-.08l-3.34-.18L133,43.09l-4.41-.34-2.36-.19L125,42.47l-1.23-.12-5.09-.48c-3.47-.33-7.08-.75-10.68-1.11L97.34,39.68c-3.44-.35-6.72-.71-9.72-1s-5.71-.65-8-.94L74.12,37,73,36.87l-1.11-.14-2.3-.31-2.35-.33c-.8-.11-1.59-.21-2.39-.36-3.18-.52-6.29-1.09-9.19-1.44l.58.05-1.47-.21c-.59-.09-1.29-.15-2.07-.25s-1.63-.2-2.57-.29l-3-.24c-.53-.06-1.09-.06-1.65-.09l-1.73-.07-.89,0H39.19l-1,0-1.92.1-1,.05-1,.08-2,.19-1,.09c-.32,0-.65.09-1,.13l-1.94.27-1.84.26-1.74.16c-2.38.15-4.82.21-7.1.51a20.19,20.19,0,0,0-3.34.7,12.53,12.53,0,0,0-1.58.6,9.38,9.38,0,0,0-1.46.87,10.21,10.21,0,0,0-1.16,1l-.45.55c-.14.17-.26.37-.38.54l-.17.27-.15.26-.25.5c-.14.32-.27.62-.36.89l.07-.18c0-.1.11-.24.17-.39s.12-.27.18-.38L9,40.15a10.61,10.61,0,0,0-.82,2.39c-.07.34-.12.64-.17.93S8,44,8,44.26c-.1,1-.12,1.63-.15,2.25s0,1.17-.07,1.87c0,.34,0,.73,0,1.17s0,1,0,1.59c.17-.63.34,4.66.35,6.65l0-.08c0,.75,0,1.75,0,2.88,0,.56,0,1.16,0,1.79S8,63.66,8,64.33s-.06,1.34-.11,2-.08,1.37-.17,2-.14,1.31-.23,2-.24,1.32-.35,1.94L7,72.07c0,.27-.09.53-.13.83s-.08.6-.12.91-.09.65-.13,1-.1.68-.13,1c-.07.7-.14,1.43-.21,2.16s-.1,1.47-.16,2.21C6,83.12,6,85.9,6.1,87.44c0,.44,0,.89.05,1.36s.06,1,.09,1.45.07,1,.11,1.52.12,1,.17,1.59c.26,2.14.63,4.41,1.07,6.72.87,4.62,2,9.43,2.7,13.87,0,0,.05.36.09.91,0,.26,0,.58.07.92s.06.69.08,1c0,.72.08,1.43.08,2s0,.88,0,.88,0,.21,0,.41,0,.41,0,.41.23.55.57,1.24a7.57,7.57,0,0,0,1.19,1.94.94.94,0,0,0,.7.37,1,1,0,0,0,.71-.59,3.9,3.9,0,0,0,.34-.8,6.21,6.21,0,0,0,.29-1.2c.07-.47.15-1,.2-1.65s0-1.33,0-2.11l.12.18s-.07-.62-.13-1.24c0-.3-.06-.61-.09-.85s-.06-.38-.06-.38c-.09-.73-.16-1.37-.25-1.91s-.16-1-.22-1.3c-.11-.67-.18-1-.11-.86l0,.16c0,.11,0,.27.07.45.07.38.14.87.22,1.37s.14,1,.19,1.38.08.64.08.64c-.36-3,0-.91.17.21-.07-.61-.15-1.23-.22-1.8s-.16-1.12-.22-1.61,0,.44.08.89c-.27-1.58-.77-3.71-1.09-5.6-.59-2.93.12-.23-.57-3.63a117.26,117.26,0,0,1-2.16-13.13,69,69,0,0,1,.13-13L10.84,76l.24-1.61.12-.8c0-.27.1-.54.15-.82l.31-1.64,0-.2,0-.23.06-.44.12-.91c.07-.59.17-1.2.21-1.78.1-1.17.21-2.34.26-3.5.13-2.33.14-4.65.15-7s0-4.57-.06-6.88c0-.41,0,.08.07.61,0-1.38,0-2.72,0-4,0-.63,0-1.23.06-1.78a9.71,9.71,0,0,1,.21-1.54,5.37,5.37,0,0,1,.41-1.23,4,4,0,0,1,.63-.93,3.59,3.59,0,0,1,.85-.67,7.15,7.15,0,0,1,1.26-.52A7.74,7.74,0,0,1,17.12,40c.27,0,.45,0,.64,0a21.94,21.94,0,0,1,3.72-.43c1.25-.1,2.77-.15,4.52-.3.45,0,.9-.08,1.38-.15l1.34-.19,2.55-.37.65-.09.64-.06,1.29-.12c.85-.08,1.69-.19,2.51-.21l2.36-.12.57,0h3.4l1.43,0,1.34.06"/><path class="cls-1" d="M17.41,66.31s3.45-.31,3.27,3.82.37,6.42,1.81,7.83l1.05,1.26a13.53,13.53,0,0,0,.82-4c.05-2.06,0-10.77-.4-11.89s.33-3.14,1.6-3.32,4.05,1.37,4.57,3.54,1.15,3.59,1,10.16c0,0,.28,6,.35,6.58s.55,6.25,3.6,5.54c0,0,2.95-.69,2.7-4.78a35,35,0,0,0-.42-6.54c-.56-3.19-.89-9.31-.95-10.19s-.48-6.16-.52-7.28-.22-5.87,1.56-6.16,3.45,1.72,4.65,7.39,2,10.88,2,10.88a61.23,61.23,0,0,1,.56,10.3c-.31,3.82-.46,7-.56,7.85s-.74,6.08-5.41,7.22c0,0-3.79.11-4.49,0s-2.6-.19-1.3,2.82A28.73,28.73,0,0,0,36.38,103s2.35,4.48,3.6,2.89,6.24-2.06,8.05-1.16a4.68,4.68,0,0,1,2.27,6.12c-1.19,2.87-.89,5,.24,5.08s2.76.49,4.16-2.88,2.69-6.33,1.46-7.1-3.25-.58-3.7-.78-3.4-1-4.62-6.93-.57-5.78-1-7.23-1.13-5.41,1.47-6.23,3.95,4.66,3.81,6.5.3,7.37.88,8.62,2.4,2.46,3.9.58a9.36,9.36,0,0,0,.39-5c-.48-3.22-.35-6.05,2.53-6s3.78,5.78,3.93,7.69.49,8.24.49,8.24.47,6.29,1.84,6.08c0,0,1.59,0,1.64-.75a16.24,16.24,0,0,0,0-1.79l-.45.26s-1-4.88.09-6.9,2.16-1.43,2.69-.82a9.64,9.64,0,0,1,1.7,6.59c-.33,3.43.08,7.24-.1,8.35s-.27,4.13-4.68,3.09c0,0-3.39-1.8-4.79.68,0,0-1.06,4.5-7.54,5.87,0,0-2.59-.55-2.34,2.64s4.46,8.5,6,9.63,4.75,5.15,4,6.68a8.69,8.69,0,0,1-2.67,3.15c-.94.7-3.56,2.53-4.28,4.1,0,0-3.09,3.49-4.48,5s-3,3.06-2.91,5.41A5.38,5.38,0,0,0,50.51,160c1.08-2,6.93-9.21,8.75-10.08,0,0,.38.25.42,1.27,0,0,1.3-.29,1.43-1.13a7.51,7.51,0,0,0,0-1.82l1.19,1.56s1.55-3.76,2.9-1.59-1,2.15-1.49,2.16c0,0,.77,2.6-2,7a66.37,66.37,0,0,0-3.56,5.85,15.43,15.43,0,0,0,3-2.69,27.47,27.47,0,0,0,4.38-7.82s1.27-2.62,3.16-1.07A17.86,17.86,0,0,1,73,156.55S76.9,162,79.1,160c0,0,.83-1.56-2.19-3.85,0,0-4.84-2.25-7.29-5.58l-2.38-3.92a65.27,65.27,0,0,0-3.83-6.27c-.86-.88-4.75-4.38-5-5.47s-.92-2.77,2.59-5,4.14-2.66,4.14-2.66,1.59-.71,3.75,1.15,2.36,1.22,4.14,3.21,4.45,3.07,5.93,5.51a7,7,0,0,1,.73,5.24c-.06.67.26,3.19-2.93,3.09s-4.22.83-4.26,2-.22,2.24,3.81,3.14,8.35,3,11.59,2.83,4.44-.18,4.55-.88c0,0,2.83-.21,3.51,1.89,0,0,5-.69,6.6,0s8.57,1.39,10.24.78,5.46-1,6.23,1.91.5,6.26-2,6.84-8.8.19-8.8.19L84.3,163s-15.18-.12-17.73.5-16.07.58-16.87.32-10,.68-10.06-.34,3.86-1.67,4-2.93-1.4-2.1-1.4-2.1l-.25.26a20.47,20.47,0,0,0-5.63-3.83,4,4,0,0,0,.43,1.6c.46,1,2.16,4.27,1.35,4.94s-2.2,0-2.2,0,1.57,3.11-2.35,3l-.8.11h-.63s-9.7,1.27-15.06-.17-6.23-4.55-5.9-10,.88-15.12.88-15.12.13-7.19-.44-9.89-1.09-8.3,1.71-10.43l6-3.36.35.14s1.37-9.16-.66-10.62c0,0-2.21.17-3.12.13s-2.77,0-3.85-3.31-.14-6.2.65-7,2.15.83,2.15.83.52-.38,0,2.87.46,4.13,1.58,3.75,1.85-1.75,2.17-4.13.46-4.73,1.75-5,1.16,2.24,1.16,2.8-.18,5.57-.32,7.14,1.47,3.82,2.87,3c0,0,.21-2.91,1.16-2.53a3.46,3.46,0,0,1,1.63,3.8c-.48,1.67-1.42,2.41-2.47,2s-2.56.34-2,2.83a14,14,0,0,0,3.43,3c2.17,1.36,7.76,5.16,10,9.24,0,0,3.06,4.1,3.87,5.62s3.28,6.63,5.25,8.26S49,140.5,49,139a4.78,4.78,0,0,0-2.77-4.26c-1.84-.89-4-2.57-4.61-4.49s-2.94-7.15-2.83-10.51,1.11-5.39-1.43-7.52-5.63-3.27-7.19-5.86c0,0-3.85-5-4.65-8.89s-.24-8.6-2-9.63-7.49-3.23-8-5.4a49.15,49.15,0,0,1-1-10.71c.24-2.28,0-3.86,2.83-5.38"/><path class="cls-2" d="M20,115.85a35.75,35.75,0,0,0,.26-5.06,12.23,12.23,0,0,0-.31-4.9c-.17-.46-1-1.58-1.61-1.36-1.18.41-3.24,1-4.34-.07-1.81-1.67-2.36-5.46-2-7.74a4.3,4.3,0,0,1,.9-1.7L15,96.4a5.21,5.21,0,0,1-.1,1.11c-.12.78-.34,1.55-.42,2.34-.14,1.34.63,3.5,2.45,2.63,1.48-.7,1.76-3,2-4.38.2-1,.34-2.12.56-3.17s.57-2.18,1.4-.89c1.85,2.86-2.77,12.53,3.25,12.34a.28.28,0,0,0,.27-.27c0-.78.07-3.26,1.4-2a3.52,3.52,0,0,1,.9,2.28c.06.81-.84,3.48-2.23,2.69-.36-.2-.88-.49-1.3-.27a2.66,2.66,0,0,0-1,3c.41,1.6,1.77,2.48,3.11,3.3a32.13,32.13,0,0,1,6.06,4.53,63.39,63.39,0,0,1,6.22,7.46c2.6,3.48,3.89,7.81,6.86,11,1.27,1.39,5.28,3.44,4.79,0-.26-1.82-1.88-3-3.29-3.89a10.56,10.56,0,0,1-3.39-2.87,18.51,18.51,0,0,1-2-4.54A32.16,32.16,0,0,1,39.11,119c-.12-2,.72-4.34-.74-6.11s-3.29-2.59-5-3.74c-2.67-1.76-4.6-5-6-7.81a21.11,21.11,0,0,1-2-9.5A5.38,5.38,0,0,0,23,87.07c-2.07-1.41-4.51-1.78-6.28-3.71S15,78.49,15,76a31.21,31.21,0,0,1,.27-6.11A5.37,5.37,0,0,1,16.48,67c1.23-1.28,3.14,0,3.63,1.27.77,2,.25,4.56.53,6.71.26,2,1.48,3,2.72,4.38a.26.26,0,0,0,.43-.11c1.63-4.37.92-9.79.54-14.34a22.37,22.37,0,0,1-.09-3c.21-3.85,4.2-.77,5.11.52,1.52,2.14,1.33,5.64,1.43,8.15.14,3.34.24,6.72.67,10,.23,1.73.62,5,2.77,5.44,2.54.53,3.59-2.78,3.79-4.58.45-3.88-.47-7.75-.84-11.58-.31-3.31-.6-6.61-.72-9.93-.08-2.38-.44-5-.07-7.39.43-2.71,2.92-1.26,3.75.19a13.45,13.45,0,0,1,1.2,3.32c.85,3.24,1.53,6.54,2.1,9.85A73.41,73.41,0,0,1,44.5,76.17c.09,3.15-.34,6.25-.49,9.39s-.64,6-3.46,7.84c-2.08,1.4-4.51,1-6.85.73-3.14-.3-.31,4.41.37,5.57,1.12,1.91,2.49,3.66,3.56,5.6.41.77,1.33,1.84,2.28,1,3.34-3,11.66-2.47,10.35,3.76-.35,1.68-1.48,3.28-.78,5a2.21,2.21,0,0,0,2.69,1.07c2.79-1.26,4.12-5.56,4.73-8.27a2,2,0,0,0-.79-2.42,4.55,4.55,0,0,0-1.9-.39c-1.73-.16-3-.28-4.07-1.76-2.24-3-2.37-7.6-2.89-11.17a17.45,17.45,0,0,1-.37-5.48c.55-3.21,3.17-1,4,.31a7.54,7.54,0,0,1,1,2.84c.4,2.6-1.12,12.58,3.63,11.9,2.32-.33,2.22-3.39,2.12-5.09-.09-1.47-.31-2.92-.27-4.39a2.31,2.31,0,0,1,3.86-1.88c2.09,1.81,2.22,6,2.37,8.47a116.7,116.7,0,0,0,1.32,12.64c0,.11.15.17.25.19a6.12,6.12,0,0,0,2.59-.22.28.28,0,0,0,.2-.25,10.61,10.61,0,0,0,0-2.39c-.06-.33-.57-.19-.51.14s.31,2-.36,2.14c-1.39.39-1.7,0-1.91-1.24-.27-1.62-.53-3.25-.73-4.89-.25-2-.21-4.07-.31-6.12-.14-2.7-.45-5.76-1.92-8.1-.94-1.49-3.57-2.3-4.78-.57-1.54,2.2-.17,5.94-.29,8.43-.11,2.09-2.45,3.9-3.73,1.48-.87-1.65-.76-3.91-.79-5.72-.06-3,.06-5.84-1.81-8.44s-4.29-1.1-4.53,1.62a20.15,20.15,0,0,0,.49,4.76c.34,2.2.6,4.4,1.09,6.57A13.08,13.08,0,0,0,50,103.9c1,1.3,2.22,1.53,3.75,1.64,1.73.13,3,.56,2.59,2.63a20.24,20.24,0,0,1-1,2.81c-.58,1.5-3.86,7.56-5.51,3.53-.43-1.06.48-2.83.81-3.85a5.54,5.54,0,0,0,.2-2.53,4.5,4.5,0,0,0-2.1-3.36c-2-1.31-7-1.23-8.7.64-1.26,1.43-2.18-.82-2.64-1.62s-1.16-1.8-1.76-2.68-4.22-6.6-1.93-6.45a18.32,18.32,0,0,0,5.28,0,7.39,7.39,0,0,0,4.4-3.5c1-1.65,1.06-3.79,1.16-5.65.16-3.14.52-6.24.48-9.39a85.3,85.3,0,0,0-2.81-18.64c-.37-1.53-1.73-8.26-4.74-7-1.32.57-1.6,1.57-1.72,2.94A60.48,60.48,0,0,0,36,60.89C36.15,66,36.91,71,37.4,76.13a25,25,0,0,1,0,6.23c-.24,1.58-2.1,4.52-3.91,2.81s-1.7-6.25-1.85-8.73c-.25-4.2,0-8.73-1.18-12.8-.71-2.44-4.31-5.79-6.44-2.83-.79,1.1-.26,3.4-.15,4.61.2,2.51.25,5.06.29,7.57a20.77,20.77,0,0,1-.34,4.45c0,.19-.44,1.17-.3,1.33-.28-.32-.54-.67-.82-1C21.11,76,21,74.28,21,71.93s-.08-5.57-3.17-5.9c-4.95-.53-3.54,12.09-3,14.67.78,3.51,3.84,5,6.86,6.31,2.62,1.15,3,3.14,3.08,5.76A18.87,18.87,0,0,0,26,99.66,22,22,0,0,0,35,110.77a9.57,9.57,0,0,1,3.26,2.83c.87,1.34.45,3.27.36,4.76a25.23,25.23,0,0,0,1.13,7.31,21.42,21.42,0,0,0,2.72,6.42c1.34,2.06,4.17,2.66,5.67,4.62.23.31,1.68,3.23-.56,2.81a5.73,5.73,0,0,1-1.72-.88,9.87,9.87,0,0,1-2.56-2.86c-1.37-2-2.38-4.25-3.55-6.37a46.79,46.79,0,0,0-10-12.06,42.34,42.34,0,0,0-5-3.26,3.72,3.72,0,0,1-2-3.25,1.2,1.2,0,0,1,1.87-1.14.68.68,0,0,0,.48.1c2.42-.68,2.66-3.78,1.56-5.61s-2.43-.75-2.65.91c-.08.67.11.84-.72.69a1.81,1.81,0,0,1-1.15-.84,4.73,4.73,0,0,1-.55-2.37,43.52,43.52,0,0,1,.27-5.23c.07-1.08.25-4.55-1.65-4.51-1.55,0-1.79,5.85-2.06,6.9a4.6,4.6,0,0,1-1,2,1.1,1.1,0,0,1-1.16.24c-1.33-.35-.93-2.07-.77-3,.32-1.74.9-4.12-1.35-4.84-1.9-.61-2.42,3.18-2.41,4.22,0,1.88.78,5.57,2.53,6.69a3.29,3.29,0,0,0,1.83.4c.59,0,2.84-.44,3.22-.07,1.3,1.22.85,3.78.78,5.38a35.18,35.18,0,0,1-.24,4.92c-.06.33.44.47.5.14"/><path class="cls-2" d="M67.51,109.47c0-1.37-1.08-8.68,1.32-8.34,3.55.5,2.65,8.67,2.59,11.1a26.66,26.66,0,0,1-.27,5.36c-.57,2.44-3.17,1.89-5,1.44-.91-.23-2.37-.88-3.26-.22a2.87,2.87,0,0,0-.66,1,14.13,14.13,0,0,1-2.48,3.51c-1.84,1.83-4.13,2.17-6.52,2.58-1.09.19-1.24.93-1.18,1.94.26,3.93,2.87,7.68,5.65,10.3,1.58,1.5,3.42,3,4.2,5.14,1,2.84-2.56,4.65-4.36,6.08-2.08,1.64-3.52,4.14-5.33,6.08-1.42,1.53-3.49,2.91-4.19,5a6.79,6.79,0,0,0-.38,2.45.27.27,0,0,0,.4.23c2.29-1.57,3.41-4.28,5.14-6.37,1.06-1.27,2.17-2.53,3.26-3.79A25,25,0,0,1,58.29,151c1.06-1,1-1,1.13.25a.26.26,0,0,0,.26.26c2,0,1.9-1.85,1.74-3.42l-.49.14c.39.65.86,1.24,1.25,1.89a.27.27,0,0,0,.49-.07c.29-.89,1.29-3.32,2.35-1.64.69,1.09-.1,1.9-1.28,1.53a.26.26,0,0,0-.32.32c1.09,4.82-3.89,9-5.65,13-.09.21.12.53.36.36a22,22,0,0,0,4.61-4.47c1.48-2,1.92-4.36,3.05-6.52,2.3-4.38,6.68,3.69,8,5.36.89,1.08,4.8,4.25,5.71,1.59.36-1.06-1-2.43-1.6-3.1A9.39,9.39,0,0,0,75.38,155a13.58,13.58,0,0,1-4-2.9c-3.63-4-5.23-9.52-9.07-13.33-1.56-1.54-4.78-3.61-3.66-6.22.5-1.17,1.93-2,2.89-2.66a14.81,14.81,0,0,1,3.51-2.31c2.67-1,6.55,3.18,8.3,4.71,2.07,1.82,5,3.61,6,6.28.54,1.44.13,4-.15,5.41-.34,1.85-4.4,1.05-5.84,1.83-1,.52-1.77,2.42-.94,3.36,1.14,1.3,3.26,1.57,4.84,2,4.68,1.29,10.49,4,15.29,1.84a.25.25,0,0,0,.13-.22c0-.08.4.07.63.08a2.49,2.49,0,0,1,2.43,1.87.26.26,0,0,0,.32.19c5.54-1.38,10.85,1.58,16.39.65,2.36-.4,5.23-1.44,6.26,1.54.7,2,.93,5.21-1.21,6.4-1.72,1-4.29.61-6.16.52-3.47-.15-6.94-.18-10.41-.31-6.8-.25-13.56-1-20.36-1.09-6.46-.13-12.92.59-19.37.94-3.22.18-6.44.24-9.66.11a61.92,61.92,0,0,0-6.24-.18,37.51,37.51,0,0,1-5,.14c-1.52-.12,1.88-1.62,2.24-1.79,2.23-1,1.42-2.39-.23-3.63a.27.27,0,0,0-.4.23c0-1.18-4.23-3.25-5.49-3.8a.26.26,0,0,0-.38.16c-.16.93.56,2,.94,2.85a20.52,20.52,0,0,1,1,2.48c.52,1.67-.94,1.42-2.06,1a.26.26,0,0,0-.32.32c.3.92.6,2.13-.61,2.48a18.92,18.92,0,0,1-2.36.35c-.34,0-.19.55.14.5,1.41-.19,3.71-.06,3.7-2,0-.15-.09-.94-.22-1a5.15,5.15,0,0,0,1.16.27,1.14,1.14,0,0,0,1.11-.5c.66-1-.56-3-1-3.87-.2-.44-1.21-2.52-.79-2.34a27.75,27.75,0,0,1,5.25,3.5.26.26,0,0,0,.4-.22c0,.47,1.58,1.36.81,2.18a4.66,4.66,0,0,1-1.68.84,4.28,4.28,0,0,0-2.15,1.24c-1.3,1.82,4.09,1.21,4.46,1.19,5-.27,9.9.27,14.88.1,6.72-.22,13.43-1,20.16-1.07s13.61.7,20.4,1c3.18.15,6.36.2,9.54.29a35.94,35.94,0,0,0,7.11,0c3.13-.53,3.89-2.73,3.57-5.69-.43-3.74-2.32-4.63-5.8-4a19,19,0,0,1-6.38.27c-2.27-.33-4.5-.88-6.8-1.08a12.53,12.53,0,0,0-3.12.1c-1.11.2-1.1.16-1.69-.54a4,4,0,0,0-3.36-1.24.27.27,0,0,0-.27.27c0,.5-2.83.64-3.14.65a17.91,17.91,0,0,1-3.92-.44c-2.45-.48-4.83-1.28-7.22-2-1.46-.43-5.62-.89-5.19-3.1.54-2.78,4.44-1.49,6.31-2.42.94-.46.87-2.05.94-2.91.1-1.32.36-3.25-.28-4.48-1-2-2.83-3.31-4.5-4.69A61.94,61.94,0,0,0,68.64,128c-1.2-.75-2.82-1.4-4.19-.73a25.86,25.86,0,0,0-5.3,3.84c-3.14,2.77.35,5.73,2.44,7.71,3.85,3.64,5.69,9,9,13.16,1.55,1.94,3.48,2.89,5.61,4.07a5.74,5.74,0,0,1,2.8,3.06c.53,1.52-2.22.74-2.55.59a5.11,5.11,0,0,1-1.4-1c-1.6-1.5-2.66-3.5-4-5.21-.9-1.13-2-2.52-3.56-2.57-1.79-.05-2.56,2.39-3.06,3.69a18.26,18.26,0,0,1-6.55,8.72l.36.36c1.46-3.39,4.11-6.1,5.44-9.55.15-.39,1-3.24.29-3.45a1.51,1.51,0,0,0,1.56-.32c.68-.69.14-2.19-.54-2.69-1.53-1.11-2.46,1.27-2.82,2.36l.48-.06c-.39-.65-.87-1.24-1.26-1.89-.13-.21-.52-.14-.49.13a12.56,12.56,0,0,1,.08,1.62l-1.08,1.06c0-.33-.1-.67-.16-1s-.21-.35-.39-.22c-3.88,2.55-6.75,7-9.37,10.75a12.87,12.87,0,0,1-1.43,1.7c-1,1,.24-2,.21-2a11,11,0,0,1,2.51-3c2.15-2.06,3.79-4.5,5.82-6.64s6.93-4,5.16-7.8a14.47,14.47,0,0,0-3.42-4.21,23,23,0,0,1-4.3-5.23c-.77-1.33-3.56-6.67-.59-6.86a10.86,10.86,0,0,0,5.68-2.24,12.35,12.35,0,0,0,3.24-4.35c.81-1.52,4,0,5.46.18,2.79.27,3.48-2,3.62-4.31a54.93,54.93,0,0,0-.25-10.88c-.21-1.39-2.1-6-4.12-3.64-1.67,1.93-.62,6.06-.58,8.35a.27.27,0,0,0,.53,0"/><path class="cls-2" d="M19.15,115.38a7.38,7.38,0,0,1-2.21,1.1,22.91,22.91,0,0,0-3.58,2.2c-2,1.52-2.29,3.54-2.32,5.92,0,3.53.84,7,.89,10.51.08,4.69-.42,9.42-.69,14.09-.26,4.44-1.49,10.94,2.49,14.17,2,1.66,5.45,1.52,7.92,1.74a34.22,34.22,0,0,0,11.42-.54.26.26,0,0,0-.14-.51,32.33,32.33,0,0,1-10,.61c-3-.17-7.15,0-9.47-2.2-1.95-1.84-2-5.11-2-7.59s.28-5.19.41-7.78c.2-4,.57-8,.59-12,0-3.12-.67-6.22-.86-9.34A13.12,13.12,0,0,1,12,121.1c.43-1.39,2-2.32,3.15-3a31.17,31.17,0,0,1,3.08-1.63,4.2,4.2,0,0,0,1.27-.68c.21-.25-.16-.63-.38-.37"/><path class="cls-3" d="M26.8,79.74c-.32.63.42,1.26,1.15,1.37-.1-.11.21-.11.21-.11,0,.53.32.84.42,1.27,2.63-1-1.47-5.68-2-2.21"/><path class="cls-3" d="M26.55,79.67c-.35.89.56,1.54,1.34,1.69.17,0,.39-.12.32-.32,0,0,0,0,0-.05l-.12.29a.14.14,0,0,1,.09,0L27.9,81a5.59,5.59,0,0,0,.43,1.33.27.27,0,0,0,.32.19c1.5-.58,1.16-2.2.3-3.2a2,2,0,0,0-1.48-.78c-.74.06-1,.83-1.13,1.45-.06.33.45.47.5.14s.19-1,.68-1.06a1.46,1.46,0,0,1,1.06.62c.6.66,1,1.91-.06,2.32l.32.19a4.73,4.73,0,0,1-.41-1.2.27.27,0,0,0-.27-.26.67.67,0,0,0-.36.09.27.27,0,0,0-.12.3s0,0,0,.05l.33-.32c-.5-.1-1.22-.43-1-1,.13-.31-.38-.45-.5-.14"/><path class="cls-3" d="M28.06,77c-.32.74.73,1.89,1.47,1.26.95-1-1.47-3-1.68-.73"/><path class="cls-3" d="M27.81,76.94a1.42,1.42,0,0,0,1.12,1.76,1,1,0,0,0,1-1.3,1.67,1.67,0,0,0-1.22-1.16c-.78-.13-1.09.65-1.15,1.3,0,.33.49.33.52,0s.13-.85.54-.78a1.13,1.13,0,0,1,.74.61.53.53,0,0,1-.26.82c-.53.14-1-.68-.82-1.11s-.39-.45-.5-.14"/><path class="cls-3" d="M27,73a1.66,1.66,0,0,0,1.47,1.36c1.05-1.67-1.47-2.73-1.47-.52"/><path class="cls-3" d="M26.76,73.09a2,2,0,0,0,1.65,1.55.28.28,0,0,0,.3-.12,1.39,1.39,0,0,0-.5-2.11,1,1,0,0,0-1,.17,1.67,1.67,0,0,0-.48,1.28.27.27,0,0,0,.53,0c0-.47.19-1.17.8-.94s.42.94.19,1.33l.29-.12A1.47,1.47,0,0,1,27.26,73c-.05-.34-.56-.19-.5.14"/><path class="cls-3" d="M26.38,69.24c0,.63.95,1.89,1.68,1.36s-.1-2.1-1-1.89a1,1,0,0,0-.42,1.68"/><path class="cls-3" d="M26.12,69.24A2,2,0,0,0,27.49,71c.9.21,1.26-.79,1-1.48a1.38,1.38,0,0,0-1.88-.91,1.26,1.26,0,0,0-.22,2c.26.22.63-.15.37-.37A.74.74,0,0,1,26.89,69c.46-.29.94.19,1.11.59s0,1-.52.79a1.54,1.54,0,0,1-.84-1.18c0-.34-.54-.34-.52,0"/><path class="cls-3" d="M26,64.51c1.57,2,1.26-2.1.21.11"/><path class="cls-3" d="M25.77,64.7c.24.29.68.78,1.11.61a.84.84,0,0,0,.43-.84c0-.3-.12-.68-.44-.78s-.77.47-.93.79.31.57.46.27a2,2,0,0,1,.29-.48l.06-.06c-.05,0,0,0,0,0s-.06,0,0,0h-.05s-.07,0,0,0,0,0,0,0,0,.09,0,0a1,1,0,0,1,.05.16c0,.07,0,0,0,0s0,.06,0,.09,0,.1,0,.15,0,0,0,0a.31.31,0,0,1,0,.08s0,0,0,0l0,.06c0-.07,0,0,0,0l0,0s-.06,0,0,0-.09,0,0,0-.09,0,0,0c-.09,0,0,0-.14-.06a2,2,0,0,1-.44-.44c-.21-.26-.58.11-.37.38"/><path class="cls-3" d="M28.06,66.4c1.15,0-1.58,1.36-.42-.21a2.22,2.22,0,0,0,.52.52"/><path class="cls-3" d="M28.06,66.66s.15,0,.08,0,0,0,0,0-.05-.15-.05-.17,0-.06,0,0-.09.07,0,0l-.1.07a1.22,1.22,0,0,1-.2.1l-.11,0H27.6c-.06,0,.06,0,0,0h-.05c-.06,0,0,0,0,0a.17.17,0,0,1,0,.07c0-.07,0,0,0,0s0,0,0-.07a2.85,2.85,0,0,1,.24-.37h-.46a2,2,0,0,0,.62.62c.27.21.53-.25.27-.45.05,0,0,0,0,0a.69.69,0,0,1-.13-.11,1,1,0,0,1-.28-.3.27.27,0,0,0-.46,0c-.19.27-.48.7-.22,1s.52.15.74.06a1.16,1.16,0,0,0,.63-.43c.22-.37-.2-.56-.5-.56a.26.26,0,0,0,0,.52"/><path class="cls-3" d="M40.67,68.71c-.21.53-.53,1.79.42,2.1s1.47-1.78.63-2.31c-1-.63-1.47.74-1.37,1.58"/><path class="cls-3" d="M40.41,68.64c-.29.76-.42,1.79.35,2.31s1.49-.38,1.63-1.08a1.39,1.39,0,0,0-1.18-1.79c-.94-.06-1.19,1.31-1.12,2,0,.33.56.33.52,0s0-1.28.5-1.46c.28-.1.57.15.69.37a1.31,1.31,0,0,1,.07.83c-.09.46-.6,1.1-1,.51-.3-.42-.09-1.12.08-1.55s-.39-.45-.51-.14"/><path class="cls-3" d="M38.88,62c0,.73-.1,1.89.32,2.41,1.47,2,1.26-2.62.31-3.57-.53.63-.31,1.68-.53,2.52"/><path class="cls-3" d="M38.62,62c0,1-.13,2.09.63,2.89a.63.63,0,0,0,1.09-.1,5.3,5.3,0,0,0-.64-4.13.27.27,0,0,0-.42.05c-.54.76-.37,1.72-.55,2.58-.07.33.44.47.51.14.17-.8,0-1.76.5-2.46l-.41.06A4.37,4.37,0,0,1,40,63.9c0,.26,0,.93-.37.6-.66-.61-.49-1.7-.48-2.51a.26.26,0,0,0-.52,0"/><path class="cls-3" d="M42.14,73.44c.73.1.73,1.26,0,1.47-1,.31-1.68-1.89.21-1.37"/><path class="cls-3" d="M42.07,73.69a.5.5,0,0,1,.19.85.41.41,0,0,1-.65-.06.62.62,0,0,1-.15-.59c.08-.28.63-.14.82-.09a.26.26,0,0,0,.14-.51c-.52-.14-1.23-.17-1.46.43A1.2,1.2,0,0,0,41.34,75a1,1,0,0,0,1.41-.18,1,1,0,0,0-.54-1.6c-.33-.06-.48.45-.14.51"/><path class="cls-3" d="M42.24,78.27c0,.63.74,1.26,1.26.42.84-1.26-1.47-2-1.36,0"/><path class="cls-3" d="M42,78.27c0,.69.7,1.39,1.39.94a1.21,1.21,0,0,0,.44-1.55,1,1,0,0,0-1.18-.41,1.33,1.33,0,0,0-.75,1.44.26.26,0,0,0,.52,0,1,1,0,0,1,.3-.91.48.48,0,0,1,.63.69c-.1.2-.27.42-.51.34s-.31-.35-.32-.54-.53-.34-.52,0"/><path class="cls-3" d="M38.78,76.48c-.11.63.1,1.79.94,1.37,1.58-.94-1.26-3.57-.94-.63"/><path class="cls-3" d="M38.52,76.42c-.1.65.07,2,1,1.77a1.2,1.2,0,0,0,.84-1.56,1.44,1.44,0,0,0-1.13-1c-.8,0-.8,1.11-.75,1.62,0,.33.56.34.53,0a2.53,2.53,0,0,1,0-.91.62.62,0,0,1,.1-.16l.07,0a.6.6,0,0,1,.31.14,1.31,1.31,0,0,1,.31.43.69.69,0,0,1-.23.9c-.58.39-.65-.72-.6-1s-.46-.48-.51-.14"/><path class="cls-3" d="M38.14,71.65c-.42,3.36,2.42.32.53-.31a1.82,1.82,0,0,0-.32,1.47"/><path class="cls-3" d="M37.88,71.65c-.06.51-.15,1.26.26,1.66a.71.71,0,0,0,1-.12,1.5,1.5,0,0,0,.46-1.07,1.16,1.16,0,0,0-.85-1,.27.27,0,0,0-.3.13,2.19,2.19,0,0,0-.34,1.67c.06.33.57.19.51-.14a1.64,1.64,0,0,1,.29-1.27l-.3.12c.58.2.56.8.19,1.21a.62.62,0,0,1-.22.14s0,0-.09,0c-.22-.25-.11-.93-.07-1.25s-.49-.33-.53,0"/><path class="cls-3" d="M37.83,67.66a1.33,1.33,0,0,0,.63,1.47c1.16-1.78-1.16-2-.84-.1"/><path class="cls-3" d="M37.58,67.59a1.68,1.68,0,0,0,.75,1.77.27.27,0,0,0,.36-.09A1.77,1.77,0,0,0,39,68a.73.73,0,0,0-.65-.56c-.9-.09-1.1,1-1,1.66.05.33.55.19.5-.14s0-1,.47-1c.08,0,.15.09.18.21a1.27,1.27,0,0,1-.29.83l.36-.1a1.13,1.13,0,0,1-.51-1.17c.05-.33-.46-.47-.5-.14"/><path class="cls-3" d="M37,59.05c.42,1.36,1.47.31,1.26-.63-.31-1.9-2.21.63-.74,1.57"/><path class="cls-3" d="M36.74,59.12c.12.37.33.79.76.84a.89.89,0,0,0,.8-.47c.35-.52.36-1.61-.26-2s-1.06.39-1.23.82a1.54,1.54,0,0,0,.57,1.86c.28.19.54-.26.27-.45a1,1,0,0,1-.39-1.06c0-.22.24-.69.5-.72s.26.78.22.95a.77.77,0,0,1-.34.48c-.21.12-.36-.33-.4-.44-.1-.32-.61-.19-.5.14"/><path class="cls-3" d="M39.93,58.21c-.21.1-.21.52,0,1s1.15,2.2,1.47.73c.11-.84-.73-1.36-.73-2.41a4.34,4.34,0,0,0-1,.63"/><path class="cls-3" d="M39.8,58c-.52.39-.22,1.14,0,1.63a2.14,2.14,0,0,0,1.05,1.23c.59.22.84-.67.83-1.08,0-.79-.71-1.38-.74-2.19a.27.27,0,0,0-.4-.22,4.42,4.42,0,0,0-1,.67c-.25.23.12.6.37.37a4,4,0,0,1,.89-.59l-.4-.23a3.06,3.06,0,0,0,.36,1.26c.23.46.52.88.3,1.39-.14.33-.56-.39-.64-.53s-.59-1.09-.36-1.26,0-.65-.26-.45"/><path class="cls-3" d="M17.34,68.29a.66.66,0,0,0-.1.95c.63,1.15,1.68-.63.73-1.16-.73-.42-.94.42-.94,1"/><path class="cls-3" d="M17.16,68.11a1,1,0,0,0-.31.93,1.24,1.24,0,0,0,.65.8c.53.21,1-.35,1.08-.8a1.06,1.06,0,0,0-.87-1.33c-.76-.1-.94.87-.94,1.42a.26.26,0,0,0,.52,0c0-.2,0-.88.32-.9a.51.51,0,0,1,.47.62c0,.22-.19.52-.39.5s-.21-.23-.27-.31-.05-.4.11-.56-.13-.62-.37-.37"/><path class="cls-3" d="M15.56,74.49c0,1.47,2,3.15,2.31,1,.21-1.27-1.58-2.21-2.1-1"/><path class="cls-3" d="M15.3,74.49a2.6,2.6,0,0,0,1,2,1,1,0,0,0,1.61-.25,1.75,1.75,0,0,0-.45-2.28,1.24,1.24,0,0,0-1.92.43c-.14.3.31.57.46.26a.72.72,0,0,1,1.21-.22A1.26,1.26,0,0,1,17.42,76c-.25.44-.75.09-1-.15a2.06,2.06,0,0,1-.61-1.38.26.26,0,0,0-.52,0"/><path class="cls-3" d="M16.4,79.53c0,1,1.05,2.42,2.1,1.68,1.89-1.47-2.1-4.83-1.89-1.15"/><path class="cls-3" d="M16.14,79.53c0,1.07,1,2.53,2.24,2a1.56,1.56,0,0,0,.71-2.14,2.14,2.14,0,0,0-1.63-1.31c-1-.08-1.15,1.22-1.11,1.93,0,.33.54.34.52,0s-.06-1.38.54-1.4.9.46,1.12.83a1.13,1.13,0,0,1-.06,1.39c-.83.9-1.78-.59-1.81-1.35,0-.34-.54-.34-.52,0"/><path class="cls-3" d="M19.13,77.22c.1.32,0,.53.42.63,1.68-1.47-.63-2.52-.63-.63"/><path class="cls-3" d="M18.88,77.29c.08.28.08.52.33.71a.47.47,0,0,0,.53,0,2.53,2.53,0,0,0,.38-.42,1.16,1.16,0,0,0,.17-1.29.84.84,0,0,0-1-.35,1.23,1.23,0,0,0-.66,1.24.26.26,0,0,0,.52,0,.94.94,0,0,1,.25-.71.29.29,0,0,1,.31,0,.26.26,0,0,1,.12.13.45.45,0,0,1,0,.25,1.52,1.52,0,0,1-.53.78l.25-.07c-.08,0-.14,0-.16-.11s0-.23-.08-.34a.26.26,0,0,0-.5.14"/><path class="cls-3" d="M18.92,73.54a1,1,0,0,0,.84.95c1.58-1.78-1.37-2.31-1.05-.32"/><path class="cls-3" d="M18.67,73.61a1.31,1.31,0,0,0,1,1.13.27.27,0,0,0,.26-.06,1.68,1.68,0,0,0,.52-1.33.89.89,0,0,0-.68-.69,1.11,1.11,0,0,0-1,.28,1.45,1.45,0,0,0-.32,1.3.27.27,0,0,0,.32.19.27.27,0,0,0,.18-.32,1,1,0,0,1,.17-.78.54.54,0,0,1,.25-.15l.12,0h.13l.06,0,0,0a.32.32,0,0,1,.11.06.26.26,0,0,1,.11.21.66.66,0,0,1-.06.34,1.46,1.46,0,0,1-.33.49l.26-.06a.84.84,0,0,1-.66-.77c-.07-.33-.57-.19-.5.14"/><path class="cls-3" d="M20.08,80c-.53,3.26,3.46-.21.63-.73a2.41,2.41,0,0,0-.63.84"/><path class="cls-3" d="M19.82,79.88c-.08.52-.16,1.28.36,1.61a1,1,0,0,0,1.18-.23A1.59,1.59,0,0,0,22,80.12,1.15,1.15,0,0,0,21.06,79L20.78,79c-.18,0-.27.08-.39.2a2.51,2.51,0,0,0-.57.83c-.12.31.39.45.51.14a2.23,2.23,0,0,1,.56-.73l-.25.07a1.59,1.59,0,0,1,.63.24.39.39,0,0,1,.14.15s0,0,0,0,0-.05,0,0,0,.15,0,.09a.78.78,0,0,1-.07.38,1.35,1.35,0,0,1-.3.4l-.16.13-.1.06s-.13.06-.07,0l-.11,0-.06,0h-.1c.1,0-.09,0,0,0s-.1-.06,0,0a.46.46,0,0,1-.07-.07s0,0,0-.06,0,0,0,0l0-.07a2.16,2.16,0,0,1,0-.8c.05-.33-.45-.47-.51-.14"/><path class="cls-3" d="M25.12,78.27c0,.74.63,1,1.05,0,.95-2.31-2.42-1-1.05.53"/><path class="cls-3" d="M24.86,78.27a.83.83,0,0,0,.54.88c.45.1.79-.33,1-.68s.42-1.27-.12-1.62a1.14,1.14,0,0,0-1.28.24,1.21,1.21,0,0,0-.35,1.39,1.83,1.83,0,0,0,.31.5c.22.26.59-.11.37-.37a1.19,1.19,0,0,1-.25-.52.59.59,0,0,1,.12-.43.82.82,0,0,1,.32-.29.7.7,0,0,1,.36-.1h0s.11,0,.05,0l0,0c.06,0,0,0,0,0s0,0,0,0,0,0,0,0,0,0,0,.06a.26.26,0,0,1,0,.07,1,1,0,0,1,0,.3,1.34,1.34,0,0,1-.45.84c-.07,0-.09,0-.13,0a.52.52,0,0,1-.09-.34.26.26,0,0,0-.52,0"/><path class="cls-3" d="M65.56,132.58a9,9,0,0,0-2.94,5c4-2.52,3.78-3.78,7.36,0,1,1.05,5,6.09,6.3,4.41,1.89-2.31-4.62-5.46-5.67-6.51-2.1-1.89-3.15-4.42-5.68-2.95"/><path class="cls-3" d="M65.43,132.36a8.27,8.27,0,0,0-3.06,5.19.27.27,0,0,0,.39.31c1.38-.9,3.28-3,5-2,1.53.94,2.73,2.69,4,4,.75.79,4,4.34,5,1.93s-2.7-4.3-4.21-5.29a30,30,0,0,1-4.19-3.78,2.83,2.83,0,0,0-3.51-.41c-.3.15,0,.6.27.45,2.43-1.18,3.86,1.48,5.35,2.9a14.83,14.83,0,0,0,2.17,1.52,12.32,12.32,0,0,1,3.43,3c.77,1.09-.14,2.26-1.36,1.6a9.4,9.4,0,0,1-1.93-1.58c-1.67-1.62-3-3.71-5-4.94-1.73-1.07-3.93,1.31-5.21,2.14l.39.3a7.81,7.81,0,0,1,2.82-4.89c.28-.18,0-.64-.27-.45"/><path class="cls-3" d="M13,120.61c-.42,5.46.84,10.71.42,16.39-.42,7.56-.84,15.13-.63,22.69,1.89-9.46,7.77-15.76,18.28-14.92,1.26.21,5,1.68,6.09,1.26,1.68-.84.21-2.1-1.26-2.52-1.47-.63-4.62.21-6.51,0a21.18,21.18,0,0,0-6.31,0,17.18,17.18,0,0,0-5,2.1c.21-2.31,2.52-5.25,4-7.14.63-1.05,3.57-5.88,4.62-6.09,3.37-1.27,8.62,8.19,13,7.77.42-4-4.2-5.25-6.93-6.09C29.63,133,28,132,26.27,128.59c-.21.42-1.05,1-1.26,1.89-.21-.21-.42-.63-.63-.84-.84,1.05-.42,3-1.05,4.63-.63,1.47-2.1,2.52-2.52,4.2-1.68-1.89-1.89,0-2.73,1.26a4.14,4.14,0,0,1,.21,1.89c-.21.42-1.26,1-1.47,1.68-.84,1.89-2.52,5.25-2.52,7.35-3.36-7.14.84-15.54,6.09-20.17,2.31-2.1,6.73-5,9.88-4,2.94.63,4.83,7.35,8,6.72.42-3.36-13-15.75-14.08-14.28-1.26,1.47,1.47,2.94,1.89,4.2.63,2.73,0,1.47-2.52,2.94-2.1,1.05-6.51,2.94-7.77,5,.42,0,.63.21,1.05.21a6.7,6.7,0,0,0-2.1,2.11c-1.89-4.42,0-8.62-.84-12.82-.84,0-1.05.42-1.47.84"/><path class="cls-3" d="M12.77,120.61a68.53,68.53,0,0,0,.3,9.28,72.31,72.31,0,0,1,0,9.54c-.37,6.75-.67,13.5-.5,20.26,0,.29.46.37.52.07,1.06-5.08,3.36-9.89,7.89-12.7a15.93,15.93,0,0,1,7.75-2.1c2.52-.1,4.66.84,7.08,1.32,1.07.2,2.36,0,2.39-1.3s-2.67-1.91-3.62-2a35.31,35.31,0,0,0-4.11.27c-1.64.08-3.32-.26-5-.27A14,14,0,0,0,18,145.39l.38.29c.48-3.15,2.94-5.43,4.55-8,1-1.65,2.78-5.6,5.12-5s4.47,3.4,6.22,5c1.52,1.35,3.35,2.88,5.5,2.8a.26.26,0,0,0,.26-.26c.14-2.74-1.77-4.39-4.16-5.34-1.62-.64-3.31-1.05-4.9-1.75a9.29,9.29,0,0,1-4.42-4.6.26.26,0,0,0-.45,0,9.55,9.55,0,0,0-1.29,1.95l.48-.06-.63-.84a.27.27,0,0,0-.45,0,6.17,6.17,0,0,0-.7,2.83c-.22,2.29-1.71,3.48-2.67,5.39-.16.31-.84-.32-1.15-.32-.59,0-.9.56-1.14,1s-.79,1-.63,1.53c.55,1.77-.54,1.93-1.28,3.23A18.5,18.5,0,0,0,14,150.65l.48-.13c-3.7-8.42,2.13-17.76,9.25-22.23,1.88-1.18,4.19-2.13,6.43-1.54,1.5.39,2.48,2,3.34,3.14,1.13,1.55,2.5,3.85,4.71,3.59a.27.27,0,0,0,.26-.27c.16-2.6-3.14-5.58-4.72-7.27-2.4-2.56-5.13-5.33-8.25-7-.42-.23-1.14-.59-1.55-.17-1.19,1.22.47,2.74,1.24,3.6a3.36,3.36,0,0,1,.8,2.06c.06.6-.8.65-1.19.78a26,26,0,0,0-3.11,1.48c-2.2,1.07-4.76,2.24-6.19,4.32a.27.27,0,0,0,.16.39c.94.18.23.31-.28.74a5.63,5.63,0,0,0-.93,1.18l.48.07c-1.61-4.21-.13-8.51-.84-12.82,0-.15-.19-.2-.32-.18a2.28,2.28,0,0,0-1.59.9c-.23.25.14.62.37.38,1.12-1.19,1.25,1.19,1.25,1.77,0,1.18-.12,2.36-.2,3.53a15.07,15.07,0,0,0,.82,6.56.27.27,0,0,0,.49.06A8.32,8.32,0,0,1,17,131.51a.26.26,0,0,0-.11-.44c-1.3-.26.68-1.42,1.12-1.74a24.75,24.75,0,0,1,3-1.72c1.61-.84,3.26-1.52,4.91-2.23.8-.34.64-1.06.51-1.79A3.39,3.39,0,0,0,25.6,122c-.38-.45-.79-.86-1.15-1.34-1.38-1.83-.16-1.64.37-1.46,2.53.81,4.9,3.5,6.76,5.29a29.07,29.07,0,0,1,6,7.32,3.28,3.28,0,0,1,.39,1.29c0,.25-2.15-1.11-2.38-1.35-1.25-1.29-2.12-2.91-3.34-4.23-2.58-2.8-6.64-1-9.31.69-7.22,4.54-12.56,14.29-8.9,22.62.11.25.48.1.49-.14a14.25,14.25,0,0,1,1.38-4.75,9.5,9.5,0,0,1,2-3.5,1.59,1.59,0,0,0,.64-1.72c0-.5-.3-.75,0-1.21.44-.73.67-2.21,2.08-.82a.26.26,0,0,0,.44-.11c.54-1.59,2.06-2.65,2.53-4.2a11.4,11.4,0,0,0,.39-2c.08-.61,0-2.77.81-1.72a.27.27,0,0,0,.48-.07c1-2.52,1.09-1.09,2,.2A7.65,7.65,0,0,0,29,132.56c1.88,1.32,4.08,1.8,6.2,2.58a7.67,7.67,0,0,1,3.62,2.44c.17.22,1,2.3.53,2.32a4.33,4.33,0,0,1-2-.58c-2.15-1.08-3.88-3.09-5.63-4.69a9.53,9.53,0,0,0-3.93-2.58c-1.31-.33-2.13.66-2.87,1.58-1.28,1.6-2.17,3.46-3.42,5.07-1.57,2-3.34,4.24-3.73,6.84,0,.21.17.44.38.3a14.77,14.77,0,0,1,8.85-2.27c1.34.06,2.63.27,4,.2,1.18-.06,2.35-.23,3.54-.23a4.88,4.88,0,0,1,2.29.65l-.21,1.65a6.35,6.35,0,0,1-1.15-.15,29.3,29.3,0,0,1-2.88-.8,14.36,14.36,0,0,0-5.58-.33c-8.18.8-12.89,7.53-14.47,15.06l.52.07c-.16-6.49.11-13,.45-19.45a80.57,80.57,0,0,0,.11-9.58,80.32,80.32,0,0,1-.35-10c0-.34-.5-.34-.53,0"/><path class="cls-3" d="M19.13,121.87c-1.26,2.31-4.2,1.68-4,5.67,2.94-1.26,7.14-5.25,6.51-8.82-1.26,1-2.52,3.15-3.78,4.41"/><path class="cls-3" d="M18.9,121.74c-.72,1.18-2,1.65-2.95,2.52a4,4,0,0,0-1.07,3.28.26.26,0,0,0,.39.23c3.3-1.51,7.13-5.09,6.64-9a.26.26,0,0,0-.44-.19c-1.45,1.31-2.45,3-3.79,4.41-.23.25.14.62.38.38,1.33-1.41,2.33-3.11,3.78-4.41l-.45-.19c.46,3.79-3.24,7.16-6.38,8.6l.39.22a3.82,3.82,0,0,1,2-3.73A5.52,5.52,0,0,0,19.36,122c.18-.29-.28-.55-.46-.26"/><path class="cls-3" d="M29.85,149.61v-.43h.62c0,1.89-1.68,2.32-2.94,3.37-2.73,2.1-4.2,5.46-6.72,7.56-2.94-4.2,5.25-10.5,8.82-10.93"/><path class="cls-3" d="M30.11,149.61c0-.16,0-.16-.1-.16,1.21,0-1.08,1.81-1.42,2a16.27,16.27,0,0,0-2.66,2.17,28.94,28.94,0,0,0-2.45,3.05c-.49.66-1,1.29-1.53,1.92s-1,1.51-1.39.35c-.82-2.42,1.71-5,3.31-6.41a12.17,12.17,0,0,1,5.84-3.13c.33-.06.19-.56-.15-.51-4.11.64-12,6.51-9,11.31a.28.28,0,0,0,.42.06c2.22-2,3.67-4.61,5.75-6.73,1.47-1.5,3.77-2,4-4.39a.27.27,0,0,0-.27-.26h-.62a.27.27,0,0,0-.27.26v.43a.27.27,0,0,0,.53,0"/><path class="cls-3" d="M41.82,148.13c-.42.21-2.94,2.94-2.52,4.42.21.63,5.25,4.41,5.88,4.62,1.89.21,5.26-3.37,3.57-5-2.3,1.67-2.1,3.36-4.83,1.67-2.94-1.46-2.52-3.78-.63-5.88a4.59,4.59,0,0,0-1-.63c-.21.63-.63.42-.84.42"/><path class="cls-3" d="M41.69,147.91c-1.15.77-2.91,2.91-2.69,4.39s2.84,2.87,4,3.71c1.65,1.22,2.49,1.92,4.37.63,1.44-1,2.88-3.1,1.6-4.7a.27.27,0,0,0-.37,0c-1.57,1.23-2.24,2.93-4.52,1.64-2.53-1.44-2.26-3.47-.57-5.47a.27.27,0,0,0,0-.41,4.72,4.72,0,0,0-1-.63.27.27,0,0,0-.36.09l-.62.29c-.34,0-.33.49,0,.53.7.07,1.87-.52,1,.66a3.68,3.68,0,0,0-.61,3.52,5.21,5.21,0,0,0,3.14,2.45,2.17,2.17,0,0,0,2.45-.85q.32-.34.66-.69c1-.95.88.69.63,1.27a5.46,5.46,0,0,1-1.93,2.09c-1.44,1-2.34,0-3.5-.88a31.09,31.09,0,0,1-3.46-2.82c-1-1,1.31-3.78,2.18-4.37.28-.19,0-.65-.26-.45"/><path class="cls-3" d="M45,146.24c.84,1.47,2.53,2.52,4,3.57,2.53,1.69,2.32,1.89,4.42.42,1.26-.84,2.73-2.94,2.52-4.41-3.36,0-2.94,4.83-6.3,2.73-1.26-.84-4-7.35-5.47-2.31"/><path class="cls-3" d="M44.75,146.38a12.78,12.78,0,0,0,3.52,3.27c.95.66,2.22,1.95,3.49,1.8,2.26-.29,4.47-3.52,4.4-5.63a.26.26,0,0,0-.26-.26,3.85,3.85,0,0,0-3,1.75c-.65.85-1.22,1.72-2.43,1.4s-1.61-1.36-2.18-2.17c-1.49-2.13-3.35-3.68-4.44-.37-.11.33.4.46.51.14,1.19-3.63,3.39.48,4.53,1.94a2.53,2.53,0,0,0,3.11.81,4,4,0,0,0,1.14-1.22,6.4,6.4,0,0,1,1.36-1.39c1.47-1,.77,1.09.43,1.68a6.92,6.92,0,0,1-2.23,2.24,1.88,1.88,0,0,1-2.5,0c-1.82-1.18-3.81-2.41-5-4.25-.19-.28-.64,0-.45.27"/><path class="cls-3" d="M53,140.57c.21,3.15,5.25,1.89,6.93,4.41-.21-4.41-4.2-4.41-7.14-4.62"/><path class="cls-3" d="M52.7,140.57c.4,3.44,5.25,2.23,7,4.54.14.19.51.16.49-.13-.32-4.19-3.93-4.64-7.4-4.88-.34,0-.34.5,0,.53,3.12.21,6.58.48,6.88,4.35l.49-.13a5.32,5.32,0,0,0-3-1.8c-1.47-.41-3.64-.59-3.86-2.48,0-.33-.57-.34-.52,0"/><path class="cls-3" d="M74.18,151.92c.42,1.47,1.89,1.47,3.36,2.1,3.57,1.47,8,3.57,12,3.36,1,0,6.09-1.68,3.36-2.74-.84-.41-4.41,1.9-6.31,1.48-3.57-.63-7.35-3.36-11.34-4.2H74"/><path class="cls-3" d="M73.92,152c.66,1.56,2.09,1.73,3.55,2.29a76.07,76.07,0,0,0,7.89,2.91c2.34.61,6.9,1,8.5-1.48.38-.6-.44-1.18-.91-1.31-1.32-.34-3.1.84-4.32,1.23-2.71.88-5.67-.94-8.07-2A15.93,15.93,0,0,0,74,151.65a.27.27,0,0,0,0,.53c3.81,0,7.22,2.47,10.73,3.72,2.72,1,4.58,0,7.17-.89,1-.35,1.9.39.77,1.08a8.18,8.18,0,0,1-1.75.73,10.18,10.18,0,0,1-5.39-.15,34.13,34.13,0,0,1-5.4-1.87c-1.54-.62-5-1.37-5.67-3-.13-.3-.64-.17-.51.14"/><path class="cls-3" d="M56.32,154.65c.63,1.26,1.89.62,2.1-1.06a2.93,2.93,0,0,0-2.1,1.06"/><path class="cls-3" d="M56.09,154.78a1.21,1.21,0,0,0,1.44.73,2.2,2.2,0,0,0,1.14-1.85.26.26,0,0,0-.25-.33,3.41,3.41,0,0,0-2.29,1.13c-.24.24.13.61.38.37a2.8,2.8,0,0,1,1.91-1l-.25-.33a2.08,2.08,0,0,1-.64,1.39c-.42.31-.78,0-1-.4s-.61,0-.45.26"/><path class="cls-3" d="M53.59,158.85v.84c1.26-.21,2.31-2.52.63-1.89"/><path class="cls-3" d="M53.33,158.85v.84a.26.26,0,0,0,.33.25,2.35,2.35,0,0,0,1.63-1.52.79.79,0,0,0-.11-.81c-.24-.3-.73-.17-1-.06s-.18.61.14.5c.09,0,.45-.19.53-.07s-.06.36-.1.46a1.87,1.87,0,0,1-1.2,1l.33.25v-.84a.26.26,0,0,0-.52,0"/><path class="cls-3" d="M52.12,161.58c0,.42-.42.42.21.84a4.22,4.22,0,0,0,.84-1.68h-.84c0,.21-.63.63-.42.42"/><path class="cls-3" d="M51.85,161.58c0,.17-.13.3-.13.48s.29.45.47.58a.26.26,0,0,0,.36-.09,5.47,5.47,0,0,0,.87-1.74.26.26,0,0,0-.25-.33h-.84a.26.26,0,0,0-.26.19c0,.08-.09.14-.15.19s-.17.11-.12.1l.33.26,0,.12c.23-.24-.14-.61-.37-.37a.35.35,0,0,0-.12.25.28.28,0,0,0,.34.25,1,1,0,0,0,.64-.66l-.25.19h.84l-.26-.33a5.24,5.24,0,0,1-.81,1.62l.36-.09a.87.87,0,0,1-.23-.2c0,.05,0,.07,0,0a1,1,0,0,0,.11-.41c0-.33-.51-.33-.53,0"/><path class="cls-3" d="M57,158.64a1.89,1.89,0,0,0,.21,1.05,2,2,0,0,0,1.89-2.94,3,3,0,0,0-2.1,2.31"/><path class="cls-3" d="M56.69,158.64a2.66,2.66,0,0,0,.24,1.18.28.28,0,0,0,.23.13,2.33,2.33,0,0,0,2.12-3.33.26.26,0,0,0-.3-.12A3.24,3.24,0,0,0,56.7,159c-.08.33.43.47.5.14A2.72,2.72,0,0,1,59.12,157l-.3-.12a1.8,1.8,0,0,1-1.66,2.55l.23.12a1.88,1.88,0,0,1-.18-.91.26.26,0,0,0-.52,0"/><path class="cls-3" d="M55.06,161.79c.84,1.26,2.31-.21,1-1.26-.84.42-.84.84-1,1.47"/><path class="cls-3" d="M54.83,161.92a1.1,1.1,0,0,0,1.69.33,1.29,1.29,0,0,0-.23-1.91.26.26,0,0,0-.31,0,2.05,2.05,0,0,0-.84.73,4.07,4.07,0,0,0-.34.9c-.1.32.41.46.51.14a6.28,6.28,0,0,1,.25-.73,1.38,1.38,0,0,1,.68-.58l-.32,0c.33.28.56.69.29,1.09s-.72.14-.92-.15-.66,0-.46.26"/><path class="cls-3" d="M53.8,158l-.42.42"/><path class="cls-3" d="M53.61,157.82l-.42.42c-.24.24.13.62.37.37s.28-.27.42-.42a.26.26,0,0,0-.37-.37"/><path class="cls-3" d="M62.41,153.38c-1-.42-1.68.85-1,2.32.84-.42,1-.84,1.26-1.9-.42,0-.63-.21-.84-.21"/><path class="cls-3" d="M62.48,153.13a1.13,1.13,0,0,0-1.41.49,2.49,2.49,0,0,0,0,2.15.27.27,0,0,0,.38.16,2.65,2.65,0,0,0,1.39-2.05.28.28,0,0,0-.26-.34,7.93,7.93,0,0,1-.84-.21c-.33,0-.33.49,0,.53s.54.19.84.21l-.25-.33a2.13,2.13,0,0,1-1.14,1.73l.39.16c-.26-.63-.5-2.42.72-2,.32.11.46-.4.14-.51"/><path class="cls-3" d="M17.45,134.69c1.05,1,2.52-.21,2.1-2.1a2.66,2.66,0,0,0-2.52,2.1"/><path class="cls-3" d="M17.26,134.87a1.38,1.38,0,0,0,1.9.12,2.52,2.52,0,0,0,.64-2.47.26.26,0,0,0-.25-.2,3,3,0,0,0-2.77,2.3c-.12.32.39.45.5.14a2.49,2.49,0,0,1,2.27-1.91l-.25-.2a2.12,2.12,0,0,1-.36,1.83.87.87,0,0,1-1.31,0c-.24-.23-.61.14-.37.37"/><path class="cls-3" d="M15.56,136.79v1.68c.21,0,.21,0,.21.21a2.71,2.71,0,0,0,1.47-2.31c-1-.64-1,0-1.68.63"/><path class="cls-3" d="M15.3,136.79v1.68a.26.26,0,0,0,.26.26l-.05,0a.26.26,0,0,0,.39.23,3.16,3.16,0,0,0,1.59-2.48.26.26,0,0,0-.12-.29,1.26,1.26,0,0,0-1.13-.23c-.38.18-.59.61-.87.91s.14.61.38.36a7.75,7.75,0,0,0,.5-.61c.26-.32.54-.16.86,0,0-.1-.08-.2-.13-.3a2.66,2.66,0,0,1-1.34,2.15l.39.23c0-.33-.14-.47-.47-.48l.26.27v-1.68a.26.26,0,0,0-.52,0"/><path class="cls-3" d="M13.67,141v.84c1.47-.21,1.89-1.05,1.47-2.31A3.31,3.31,0,0,0,13.67,141"/><path class="cls-3" d="M13.4,141v.84a.27.27,0,0,0,.34.25,2.18,2.18,0,0,0,1.6-.88,2.1,2.1,0,0,0,.05-1.75.26.26,0,0,0-.32-.19,3.65,3.65,0,0,0-1.63,1.6c-.19.28.27.54.45.26a3.18,3.18,0,0,1,1.32-1.35l-.33-.18a1.63,1.63,0,0,1,0,1.35c-.24.44-.83.56-1.28.64l.33.25V141a.27.27,0,0,0-.53,0"/><path class="cls-3" d="M21,131.75c.21,1.47,1.05,0,1.26-1.27-.84,0-.84.63-1.26,1.27"/><path class="cls-3" d="M20.77,131.81a1,1,0,0,0,.35.75.51.51,0,0,0,.61-.12,2,2,0,0,0,.46-.74,4.93,4.93,0,0,0,.34-1.15.27.27,0,0,0-.25-.33,1.17,1.17,0,0,0-1,.44c-.22.29-.34.64-.54,1s.27.55.46.27.27-.52.41-.77a.64.64,0,0,1,.62-.36l-.25-.34a4.57,4.57,0,0,1-.47,1.39.64.64,0,0,1-.24.3c.06,0,.1.05.05,0a1,1,0,0,1-.09-.38c-.06-.34-.57-.19-.51.13"/><path class="cls-3" d="M54,137.63c.21-.42,0,.63,0,.84,1.05,3.36,3.36-1.05.62-1.68a3.61,3.61,0,0,0-.62,2.1"/><path class="cls-3" d="M54.23,137.76c0-.06,0-.07,0,0l-.25.07c-.22-.07-.16-.33-.17-.11a2.7,2.7,0,0,1,0,.28c0,.17,0,.34-.06.51a2.24,2.24,0,0,0,.58,1.17.9.9,0,0,0,1.36,0,2,2,0,0,0,.48-1.67,1.85,1.85,0,0,0-1.45-1.47.27.27,0,0,0-.3.13,4.17,4.17,0,0,0-.67,2.23.27.27,0,0,0,.53,0,3.61,3.61,0,0,1,.59-2l-.29.12a1.31,1.31,0,0,1,1.09,1.21c0,.38-.12,1-.52,1.18s-.89-.79-.86-1.11a2.38,2.38,0,0,0,.07-.84c-.09-.33-.45-.21-.57,0s.29.56.45.26"/><path class="cls-3" d="M49.81,136.58c.21,1,.84,1.89,1.89.63.63-1.05-1.68-2.94-2.32,0"/><path class="cls-3" d="M49.55,136.65c.16.71.64,1.76,1.55,1.38a1.32,1.32,0,0,0,.82-1.8,1.49,1.49,0,0,0-1.35-.86c-.89,0-1.27,1-1.44,1.77-.07.32.43.47.51.13s.29-1.16.81-1.35a.86.86,0,0,1,.89.37.66.66,0,0,1-.05,1c-.71.72-1.09-.11-1.23-.76-.07-.33-.58-.19-.51.14"/><path class="cls-3" d="M50.86,133.64c.42,1.89,1.47,1.05,1.68-.84-.21-.21-.63-.21-.84-.42-.21.42-.63,1.05-.84,1.47"/><path class="cls-3" d="M50.6,133.7a1.87,1.87,0,0,0,.64,1.18.72.72,0,0,0,.9-.22,2.78,2.78,0,0,0,.58-1.35c.06-.26.16-.56-.06-.76s-.56-.17-.78-.36a.27.27,0,0,0-.41.05c-.26.51-.58,1-.84,1.47-.16.3.3.57.45.27.26-.5.59-1,.84-1.47l-.41.05c.25.21.6.22.84.42l-.07-.18a2.71,2.71,0,0,1-.59,1.57c-.33.32-.54-.64-.58-.8a.26.26,0,0,0-.51.13"/><path class="cls-3" d="M49.6,130a.83.83,0,0,0,1.26-.84c-.11-2-2.74,0-1.26.63"/><path class="cls-3" d="M49.46,130.18a1.1,1.1,0,0,0,1.65-.73c.09-.59-.14-1.4-.83-1.45a1.39,1.39,0,0,0-1.24.7.86.86,0,0,0,.42,1.28c.31.13.58-.32.27-.46s-.39-.28-.26-.53a1,1,0,0,1,.66-.47c.33-.05.44.27.46.6a.59.59,0,0,1-.26.63.64.64,0,0,1-.6,0c-.3-.17-.56.29-.27.45"/><path class="cls-3" d="M47.28,132.16a.85.85,0,1,0,1.58.64c1.15-1.79-2-2.74-1.37.1"/><path class="cls-3" d="M47,132.1a1.1,1.1,0,0,0,1.53,1.36,1.6,1.6,0,0,0,.67-2,1.15,1.15,0,0,0-1.44-.5c-.75.36-.69,1.37-.55,2,.07.33.58.19.51-.14s-.2-1.09.19-1.37a.55.55,0,0,1,.74.12.86.86,0,0,1,0,1.08.68.68,0,0,1-.79.38c-.33-.11-.38-.52-.3-.81a.26.26,0,0,0-.51-.13"/><path class="cls-3" d="M44.13,130.59c.11.63.53,1,1.16.42,1.16-1.16-1.16-2.63-1.16-.32"/><path class="cls-3" d="M43.88,130.66a1.14,1.14,0,0,0,.58.88,1,1,0,0,0,1.08-.41,1.18,1.18,0,0,0,.17-1.4,1,1,0,0,0-1.11-.49c-.6.17-.72.92-.73,1.45a.27.27,0,0,0,.53,0c0-.32,0-.79.33-.94l.1,0a.26.26,0,0,1,.13,0,.74.74,0,0,1,.25.17.57.57,0,0,1,.07.65,1,1,0,0,1-.53.48c-.25.06-.34-.39-.36-.54-.06-.34-.57-.19-.51.14"/><path class="cls-3" d="M45.71,128.59a2.08,2.08,0,0,0,.63,1c3.67-2-1.58-3.57-.42-.63"/><path class="cls-3" d="M45.46,128.67a2.56,2.56,0,0,0,.69,1.16.26.26,0,0,0,.32,0,2.75,2.75,0,0,0,1.41-1.36,1,1,0,0,0-.39-1.1,1.24,1.24,0,0,0-2,.55,2.1,2.1,0,0,0,.16,1.13c.12.31.62.17.5-.14a1.85,1.85,0,0,1-.15-.79.48.48,0,0,1,.17-.37c0-.05,0,0,.06-.05l.06,0a.27.27,0,0,1,.12,0l.06,0h0a.81.81,0,0,1,.48.07.54.54,0,0,1,.4.56c0-.07,0,.06,0,.08a.19.19,0,0,1,0,.09,1.17,1.17,0,0,1-.22.3,3.44,3.44,0,0,1-.91.65l.31.05a2.15,2.15,0,0,1-.56-.94c-.08-.32-.59-.18-.5.15"/><path class="cls-3" d="M47.39,125.34a1.68,1.68,0,0,0,1,1.15c1.68-1.36-1.37-3.46-.85-.31"/><path class="cls-3" d="M47.14,125.41a2.07,2.07,0,0,0,1.06,1.31.27.27,0,0,0,.32,0,1.46,1.46,0,0,0,.58-1.26,1.35,1.35,0,0,0-.63-1,.78.78,0,0,0-1,.11,2.17,2.17,0,0,0-.22,1.73c0,.33.56.19.51-.14a1.83,1.83,0,0,1,.09-1.23s0,0,0,0,0,0,0,0H48a.35.35,0,0,1,.25.08.81.81,0,0,1,.22.23.85.85,0,0,1,.13.34,1,1,0,0,1-.43.85l.32,0a1.62,1.62,0,0,1-.83-1c-.07-.34-.58-.19-.5.14"/><path class="cls-3" d="M42.66,125.65c-.1.53.21,1.26,1,.74,1-.74-.84-3.15-.74-.64"/><path class="cls-3" d="M42.41,125.58a1.23,1.23,0,0,0,.2,1,.75.75,0,0,0,1,.14,1.12,1.12,0,0,0,.56-1.39,1.18,1.18,0,0,0-.88-.94.53.53,0,0,0-.5.33,2.31,2.31,0,0,0-.14,1,.26.26,0,0,0,.52,0,2.44,2.44,0,0,1,.06-.71.64.64,0,0,1,0-.09l0,0s0,0,0,0-.05,0,0,0,0,0,0,0,.05,0,.11.1a1,1,0,0,1,.19.34.69.69,0,0,1-.07.75c-.11.11-.35.26-.49.14a.6.6,0,0,1-.11-.53c0-.34-.45-.48-.51-.15"/><path class="cls-3" d="M44.34,123.66c-.1.63.74,1.26,1.26.31.95-1.89-2.2-1.36-1.05.42"/><path class="cls-3" d="M44.08,123.66a1,1,0,0,0,.44.93.85.85,0,0,0,1.09-.19c.44-.44.66-1.31.1-1.74a1.12,1.12,0,0,0-1.32.17,1.28,1.28,0,0,0-.06,1.69c.17.29.63,0,.45-.26s-.33-.69-.11-1a.68.68,0,0,1,.67-.23.24.24,0,0,1,.16.15.76.76,0,0,1-.06.49c-.08.22-.28.54-.55.48a.44.44,0,0,1-.28-.52c0-.34-.49-.33-.53,0"/><path class="cls-3" d="M45.92,122c.53,1.89,2.94-.84.63-1.58a2.37,2.37,0,0,0-.63,2.31"/><path class="cls-3" d="M45.67,122.05c.12.39.37.82.84.84a1.18,1.18,0,0,0,1-.53,1.4,1.4,0,0,0-.86-2.22.27.27,0,0,0-.26.07,2.73,2.73,0,0,0-.69,2.57c.07.33.57.19.5-.14a2.18,2.18,0,0,1,.56-2l-.25.06c.63.22,1,.71.63,1.33s-.77.48-.94-.08c-.1-.32-.61-.18-.5.15"/><path class="cls-3" d="M46,118.3c.53,1.47,2.63,0,1.16-1-1,0-1.37.73-1.16,1.68"/><path class="cls-3" d="M45.77,118.37a1.1,1.1,0,0,0,1.32.77A1.15,1.15,0,0,0,48,118a1.31,1.31,0,0,0-.44-.81.92.92,0,0,0-1,0,1.61,1.61,0,0,0-.7,1.87c.07.33.57.19.51-.14a1.1,1.1,0,0,1,.33-1.2c.17-.12.42-.21.59-.06a.66.66,0,0,1,.23.44.63.63,0,0,1-.43.58.55.55,0,0,1-.72-.39c-.12-.32-.63-.18-.51.14"/><path class="cls-3" d="M44.66,115.88a1.08,1.08,0,0,0,1.05.32c.63-1.68-1.26-1.79-.84-.22"/><path class="cls-3" d="M44.47,116.07a1.41,1.41,0,0,0,1.31.38c.09,0,.15-.1.18-.18.21-.58.23-1.57-.58-1.66a.74.74,0,0,0-.68.35,1.38,1.38,0,0,0-.09,1.09.26.26,0,0,0,.51-.13,1,1,0,0,1,0-.65.27.27,0,0,1,.09-.11c.06,0,0,0,.07,0h.07c-.07,0,0,0,0,0s.07,0,0,0a.45.45,0,0,1,.12.16,1.32,1.32,0,0,1-.08.81l.18-.19a.88.88,0,0,1-.8-.24.26.26,0,0,0-.37.37"/><path class="cls-3" d="M41.4,115.57c.11.84,1,1.15,1.47.31,1-1.26-1.26-2.2-.94-.1"/><path class="cls-3" d="M41.15,115.64a1,1,0,0,0,1.58.79,1.39,1.39,0,0,0,.54-1.61.9.9,0,0,0-1-.51c-.63.2-.63,1-.56,1.54,0,.33.56.19.51-.14s-.08-.74.2-.89c.11-.07.3,0,.39.17a.68.68,0,0,1-.12.76c-.16.21-.35.42-.63.34s-.33-.38-.36-.59-.56-.2-.51.14"/><path class="cls-3" d="M41.72,120.29c-.11.74.63,1.68,1.36,1.06,1.16-1.06-1.36-3.15-1.15-.53"/><path class="cls-3" d="M41.46,120.29c-.1.88.72,1.88,1.62,1.38a1.18,1.18,0,0,0,.43-1.56,1.27,1.27,0,0,0-1.1-.82c-.74,0-.78,1-.74,1.53,0,.33.54.34.52,0a2.21,2.21,0,0,1,0-.77.33.33,0,0,1,.19-.24s.07,0,.09,0a.77.77,0,0,1,.16.07,1.11,1.11,0,0,1,.3.31.75.75,0,0,1,0,.85.48.48,0,0,1-.71.12,1,1,0,0,1-.31-.88c0-.33-.49-.33-.52,0"/><path class="cls-3" d="M49.49,118.51c.31,1,2,1.26,1.68-.31s-1.68-.64-1.47.73"/><path class="cls-3" d="M49.24,118.58a1.42,1.42,0,0,0,1.28,1c.7,0,1-.64.94-1.23s-.47-1.51-1.22-1.26-.89,1.19-.8,1.82c0,.33.57.34.52,0a1.43,1.43,0,0,1,.35-1.27c.4-.31.61.54.63.79.09,1-1,.63-1.2,0-.1-.32-.61-.19-.5.14"/><path class="cls-3" d="M49.07,120.93a5.63,5.63,0,0,0,0,1.36c.53,1.26,1.47.53,1.47-.63s-1-2.31-1.47-.73"/><path class="cls-3" d="M48.82,120.85a3.28,3.28,0,0,0,0,.76,3.73,3.73,0,0,0,0,.75,1.32,1.32,0,0,0,.71.82c.71.28,1.18-.67,1.25-1.2a2.14,2.14,0,0,0-.66-1.92c-.66-.49-1.14.22-1.3.79a.26.26,0,0,0,.5.14c.1-.32.25-.77.59-.42a1.71,1.71,0,0,1,.36,1.25c0,.27-.2,1-.6.85-.2-.06-.33-.38-.34-.57a4.58,4.58,0,0,1,0-1.11c.07-.33-.43-.46-.5-.14"/><path class="cls-3" d="M52.12,121.55a1.72,1.72,0,0,0,.21,1.27,1.07,1.07,0,0,0,.42-1.37c-.21,0-.21.21-.42.21"/><path class="cls-3" d="M51.86,121.48A2,2,0,0,0,52.1,123a.27.27,0,0,0,.41,0,1.37,1.37,0,0,0,.49-1.62c0-.1-.13-.21-.25-.2a.66.66,0,0,0-.25.07s-.14.14-.17.15c-.34,0-.34.56,0,.52a.5.5,0,0,0,.24-.06s.14-.15.18-.15l-.26-.19a.88.88,0,0,1-.35,1.11l.41.05a1.44,1.44,0,0,1-.18-1.05c.07-.34-.43-.48-.51-.15"/><path class="cls-3" d="M52.33,119.35c.1.31-.11.42.31.53.32-.63.21-1.06-.52-.74"/><path class="cls-3" d="M52.07,119.42c0,.12,0,.25,0,.37s.27.28.45.34a.26.26,0,0,0,.3-.13,1.1,1.1,0,0,0,.12-1c-.19-.35-.65-.24-.94-.12s-.18.63.14.5a1.32,1.32,0,0,1,.3-.09c.07,0,.07,0,0,0,.05.12-.06.34-.13.47l.3-.12-.12,0s0,.1,0,0a1.84,1.84,0,0,0-.05-.35.26.26,0,0,0-.51.14"/><path class="cls-3" d="M54.43,118.72c-.32.74.52,1.68,1.26,1.16,1.47-.95-.95-4-1.58-.95"/><path class="cls-3" d="M54.17,118.64c-.32.86.52,1.94,1.45,1.57a1.36,1.36,0,0,0,.74-1.66,1.6,1.6,0,0,0-1.19-1.2c-.82-.1-1.17.88-1.31,1.51-.07.33.43.47.51.14s.23-1.12.72-1.13c.33,0,.59.39.7.66a.89.89,0,0,1-.12,1c-.54.55-1.21-.16-1-.76.12-.32-.39-.46-.51-.15"/><path class="cls-3" d="M54.53,121.77c.11.94,1.16,1.36,1.58.52.84-1.58-1.89-1.58-1.79,0"/><path class="cls-3" d="M54.28,121.84c.1.69.83,1.47,1.58,1.07a1.27,1.27,0,0,0,.53-1.65,1.23,1.23,0,0,0-1.4-.33,1.35,1.35,0,0,0-.93,1.36c0,.34.54.34.53,0a.88.88,0,0,1,1.29-.82c.28.19,0,.67-.1.85-.43.52-.93-.23-1-.62s-.56-.2-.51.14"/><path class="cls-3" d="M57.16,117.25v.52c.52.43,1.15.53,1.47-.31.53-1.58-1.79-1.68-1.26-.11"/><path class="cls-3" d="M56.9,117.25a1.63,1.63,0,0,0,0,.66,1.16,1.16,0,0,0,.46.32,1,1,0,0,0,1,0,1.4,1.4,0,0,0,.45-1.81,1,1,0,0,0-1.2-.39,1,1,0,0,0-.49,1.39c.1.32.6.19.5-.13s-.14-.57.09-.73a.47.47,0,0,1,.55,0,.71.71,0,0,1,.12.8c-.19.6-.7.45-1.09.16a2.53,2.53,0,0,1,.13.22v-.52a.26.26,0,0,0-.52,0"/><path class="cls-3" d="M60,116.41c-.43.94,1,1.47,1.68.42.94-1.69-1.89-2.21-1.68.1"/><path class="cls-3" d="M59.74,116.34c-.35.86.51,1.46,1.3,1.29a1.48,1.48,0,0,0,1-1.83,1.13,1.13,0,0,0-1.39-.63,1.59,1.59,0,0,0-.94,1.76c0,.34.55.34.53,0a1.16,1.16,0,0,1,.45-1.21.63.63,0,0,1,.79.14c.28.36,0,.92-.34,1.15s-1.15.07-.91-.54c.13-.31-.38-.44-.51-.13"/><path class="cls-3" d="M67.14,115.57c-.1.21-.1.31-.21.52.84.43.73,3,1.68,1.16.74-1.58-1.37-3.26-1.26-1"/><path class="cls-3" d="M66.91,115.43c-.07.18-.13.36-.21.53a.26.26,0,0,0,.1.36c.53.29.52,1.17.85,1.63.56.79,1.22-.52,1.33-1a1.86,1.86,0,0,0-.78-2,.69.69,0,0,0-.81.07,1.42,1.42,0,0,0-.3,1.15c0,.34.54.34.52,0s0-1.08.5-.65a1.44,1.44,0,0,1,.23,1.65,1.59,1.59,0,0,1-.26.41c-.1.11,0,0,0,.07a1.34,1.34,0,0,1-.25-.54,2.22,2.22,0,0,0-.8-1.28c0,.12.06.25.1.37.07-.18.13-.36.21-.53s-.31-.57-.46-.27"/><path class="cls-3" d="M61.26,110.63a.81.81,0,0,0,.84.63c2.1-2.21-1.79-1.58-.74-.53"/><path class="cls-3" d="M61,110.7a1.14,1.14,0,0,0,1,.82.4.4,0,0,0,.36-.11l.2-.23a3.46,3.46,0,0,0,.32-.46c.23-.43.21-1-.29-1.14-.66-.26-2,.29-1.53,1.15a1,1,0,0,0,.16.19c.23.24.6-.13.37-.37a.27.27,0,0,1-.09-.12s0,0,0,0,0,0,0,0,0,.07,0,0,0,0,0,0,0-.07,0,0a.46.46,0,0,0,.07-.07l0,0,.09,0,.14,0a.78.78,0,0,1,.35-.07h.11l.12,0,.07,0,0,0s0-.05,0,0v0s0,0,0,0,0,0,0,0,0,0,0,.07a.7.7,0,0,1-.08.2,2.55,2.55,0,0,1-.47.61l.19-.07a.59.59,0,0,1-.59-.44c-.11-.32-.62-.18-.51.14"/><path class="cls-3" d="M61.05,106.84c.1.32.31.85.94.64,1.79-.53-.63-3.26-.63-.11"/><path class="cls-3" d="M60.79,106.92a1.23,1.23,0,0,0,.63.81,1.2,1.2,0,0,0,1-.18,1,1,0,0,0,.33-1.32.93.93,0,0,0-1-.59c-.66.2-.69,1.19-.69,1.73a.26.26,0,0,0,.52,0,3.47,3.47,0,0,1,.11-.9,1.15,1.15,0,0,1,.1-.23.55.55,0,0,1,.11-.1c-.06,0,0,0,0,0s0,0,0,0H62c-.08,0,0,0,0,0s0,0,0,0a.57.57,0,0,1,.22.24.52.52,0,0,1,0,.63.81.81,0,0,1-.58.22c-.22,0-.32-.29-.38-.48s-.61-.18-.51.14"/><path class="cls-3" d="M58.21,109.16c-.1.42.1,1.36.74.63.94-1.16-.74-2.52-.74-.42"/><path class="cls-3" d="M58,109.09c-.11.48,0,1.33.7,1.22a1.2,1.2,0,0,0,.69-.67,1.47,1.47,0,0,0,.13-.82c-.06-.39-.39-.84-.82-.81-.62.06-.71.88-.71,1.36a.26.26,0,0,0,.52,0,1.91,1.91,0,0,1,.1-.67.31.31,0,0,1,.07-.12s.07-.06,0,0,0,0,0,0-.06,0,0,0-.05,0,0,0l0,0a.41.41,0,0,1,.15.25.89.89,0,0,1-.27.87l-.11.08s-.06,0,0,0,0,0,0-.07a1,1,0,0,1,0-.5c.08-.33-.43-.47-.5-.14"/><path class="cls-3" d="M56.84,113.15c-.21.74.63,1.37,1.27.42,1.36-1.57-1.79-2.31-1,.32"/><path class="cls-3" d="M56.59,113.08a1,1,0,0,0,.4,1.12,1,1,0,0,0,1.2-.31c.41-.47.75-1.1.31-1.67a1,1,0,0,0-1.28-.17c-.62.41-.51,1.29-.31,1.9.1.33.6.19.5-.13s-.25-1,0-1.27a.43.43,0,0,1,.59,0,.38.38,0,0,1,.16.25.78.78,0,0,1-.12.43c-.14.24-.38.6-.69.61s-.34-.37-.28-.57-.43-.47-.51-.14"/><path class="cls-3" d="M61.05,113.26c.21,1.47,1.78,0,.73-.85a2.36,2.36,0,0,0-.84,1.47"/><path class="cls-3" d="M60.79,113.32c.11.66.65,1.07,1.24.61a1.12,1.12,0,0,0-.06-1.7.29.29,0,0,0-.38,0,2.59,2.59,0,0,0-.9,1.59c-.06.33.44.47.51.13A2.12,2.12,0,0,1,62,112.6h-.38a.59.59,0,0,1,.16.86c-.27.34-.4,0-.45-.27s-.56-.19-.51.13"/><path class="cls-3" d="M57.05,104.11c-.1,1.16,1,1.89,1.48.43.2-.64,0-1.9-.85-1.16-.52.42-.31,1.89-.2,2.41"/><path class="cls-3" d="M56.79,104.11c0,.62.27,1.62,1.07,1.5s1.07-1.29,1-2a.77.77,0,0,0-1.48-.26,3.58,3.58,0,0,0-.13,2.5c.07.33.57.19.51-.14a6.17,6.17,0,0,1-.12-1.35,1.67,1.67,0,0,1,.14-.67c.11-.23.41-.42.53-.12A1.43,1.43,0,0,1,58,105c-.46.49-.66-.63-.64-.88s-.51-.33-.53,0"/><path class="cls-3" d="M59.89,100.33c-.21.63-.21,1.79.74,1.68,2.62-.31-1.48-3.78-.74-.73"/><path class="cls-3" d="M59.64,100.26a2.1,2.1,0,0,0,0,1.44,1,1,0,0,0,1.24.54,1,1,0,0,0,.77-1.4,1.89,1.89,0,0,0-1.37-1.07c-.87-.1-.76,1.06-.64,1.58.07.33.58.19.51-.14a1.57,1.57,0,0,1,0-.83c0-.09.09-.09.17-.09a1.46,1.46,0,0,1,.86.68c.2.33.16.59-.23.72s-.68.12-.8-.25a1.61,1.61,0,0,1,0-1c.1-.32-.41-.46-.51-.14"/><path class="cls-3" d="M59.05,96.87c0,.73.53,1.26,1.26.84,2.63-1.47-3.15-3.37-.84.1"/><path class="cls-3" d="M58.79,96.87a1.21,1.21,0,0,0,.76,1.21,1.47,1.47,0,0,0,1.28-.41,1,1,0,0,0,.31-1.28c-.36-.66-1.74-1.19-2.3-.49s0,1.51.4,2c.19.28.64,0,.46-.26a3.28,3.28,0,0,1-.5-1,.36.36,0,0,1,0-.14V96.4s0-.14,0-.08l0-.06c0-.06,0,0,0,0a.32.32,0,0,1,.11-.09.7.7,0,0,1,.23,0,1.54,1.54,0,0,1,.57.12,1.28,1.28,0,0,1,.44.3.48.48,0,0,1,.16.36c0,.07,0-.06,0,0a.15.15,0,0,1,0,.07l0,.09a.75.75,0,0,1-.23.24c-.34.27-.86.48-1.07,0a1.22,1.22,0,0,1-.07-.38.26.26,0,0,0-.52,0"/><path class="cls-3" d="M60.31,93.29c0,.21,0,.84.63.74,1.05-.21-.42-3-.84-.74"/><path class="cls-3" d="M60.05,93.29a1.16,1.16,0,0,0,.17.71.75.75,0,0,0,.87.26c.48-.16.54-.72.44-1.15a1.29,1.29,0,0,0-.74-1c-.62-.19-.86.65-.94,1.07s.44.48.5.14a2,2,0,0,1,.2-.62.19.19,0,0,1,.09-.09s0,0,0,0,.07,0,.06,0a.74.74,0,0,1,.1.11,1.4,1.4,0,0,1,.2.38,1.2,1.2,0,0,1,0,.38s0,0,0,0,0,.11,0,.06-.06.09,0,0l0,0s-.24.08-.32,0a.76.76,0,0,1-.08-.42.26.26,0,0,0-.52,0"/><path class="cls-3" d="M68.19,105c-.1,1.89,2.42-.21.63-.94a1.39,1.39,0,0,0-.31.84"/><path class="cls-3" d="M67.93,105a.78.78,0,0,0,1.37.72,1.21,1.21,0,0,0,.42-.92,1.14,1.14,0,0,0-.77-1,.27.27,0,0,0-.36.1,1.79,1.79,0,0,0-.35,1c0,.34.52.34.53,0a1.37,1.37,0,0,1,.28-.71l-.36.1a1.21,1.21,0,0,1,.39.24.54.54,0,0,1,.12.24.67.67,0,0,1-.23.54.66.66,0,0,1-.23.17.4.4,0,0,1-.09,0H68.6s-.08,0,0,0a.05.05,0,0,1,0,0s0,0,0,0l0,0a1.27,1.27,0,0,1,0-.41c0-.33-.51-.33-.52,0"/><path class="cls-3" d="M68.51,108.73c.2.53,1.26.22,1-.83-.21-1.26-1.79.42-.85,1.47"/><path class="cls-3" d="M68.28,108.87a.77.77,0,0,0,1.25.11,1.23,1.23,0,0,0,0-1.69c-.43-.33-.92.14-1.14.5a1.52,1.52,0,0,0,.16,1.76c.22.26.59-.11.37-.37a.94.94,0,0,1-.14-1c0-.14.27-.51.43-.48s.1.19.11.26a.81.81,0,0,1-.08.57c-.1.17-.39.28-.49.07s-.59,0-.45.26"/><path class="cls-3" d="M68.51,111.79c.1.84.73.84,1-.11.31-1.26-1.27-.63-1,.73"/><path class="cls-3" d="M68.25,111.86a1.09,1.09,0,0,0,.38.72.6.6,0,0,0,.71-.07,1.35,1.35,0,0,0,.42-1.52c-.23-.41-.74-.25-1,0a1.56,1.56,0,0,0-.37,1.49c.07.34.57.2.5-.13a1.11,1.11,0,0,1,.15-.89.75.75,0,0,1,.24-.19h.06s0,0,0,0,0,0,0,0a.28.28,0,0,1,0,.16,1.07,1.07,0,0,1-.23.57.45.45,0,0,1-.14.11s0,0,0,0-.14-.3-.16-.43a.25.25,0,0,0-.32-.17c-.16,0-.21.17-.19.32"/><path class="cls-3" d="M64.2,113.78a.85.85,0,0,0,1.26.63c1.78-.63-1.16-2.83-.95,0"/><path class="cls-3" d="M63.94,113.78a1,1,0,0,0,.52.83,1.34,1.34,0,0,0,1.29,0,.86.86,0,0,0,.41-1.25,1.16,1.16,0,0,0-1.19-.56c-.7.15-.76,1.08-.72,1.65,0,.34.55.34.53,0a2.37,2.37,0,0,1,.06-.84.46.46,0,0,1,.24-.3h.12a.41.41,0,0,1,.16,0,.75.75,0,0,1,.3.22c.14.16.18.36,0,.5s-1.17.34-1.19-.24c0-.34-.54-.34-.52,0"/><path class="cls-3" d="M47.91,88.57a1,1,0,0,0,.53,1.36c2.84.95-1.58-3.89-.53-.52"/><path class="cls-3" d="M47.66,88.5A1.29,1.29,0,0,0,48,90a1.85,1.85,0,0,0,1.1.33c.57,0,.66-.54.47-1s-1.61-2.16-2-1a2,2,0,0,0,.13,1.19c.1.32.61.18.51-.14a2.09,2.09,0,0,1-.15-.85c0,.05,0,0,0-.06s0,0,0,0-.08,0,0,0,0,0,0,0a1,1,0,0,1,.36.21,2.78,2.78,0,0,1,.48.49,2.15,2.15,0,0,1,.27.45l0,.1a.56.56,0,0,1,0,.07s0,0,0,0,0,0,0,0H49a1.06,1.06,0,0,1-.34-.06.78.78,0,0,1-.54-.35.87.87,0,0,1,0-.74c.12-.32-.39-.46-.51-.14"/><path class="cls-3" d="M50.12,92s0-.31-.21-.31c.11.84.74.84,1-.11.31-1.26-.84-1-1,.11"/><path class="cls-3" d="M50.38,92a.52.52,0,0,0-.47-.57c-.19,0-.28.18-.25.33.06.43.4,1,.92.75a1.57,1.57,0,0,0,.58-1.5.58.58,0,0,0-.79-.5,1.33,1.33,0,0,0-.72,1.18c0,.33.49.33.52,0a1,1,0,0,1,.32-.66.18.18,0,0,1,.1,0s0,0,0,0,0,0,0,0a.83.83,0,0,1,0,.12,1.46,1.46,0,0,1-.06.46.84.84,0,0,1-.22.43s-.06,0,0,0,0,0,0,0a.72.72,0,0,1-.14-.4l-.25.33c-.09,0-.08-.08,0,0,0,0,0,0,0,0a.26.26,0,0,0,.52,0"/><path class="cls-3" d="M48.86,95.61c-.53,3.88,3.36-.84.42-1.27a3.94,3.94,0,0,0-.42,1.58"/><path class="cls-3" d="M48.6,95.61c-.07.48-.2,1.44.37,1.72s.93-.21,1.19-.55a2.18,2.18,0,0,0,.48-1.53,1.4,1.4,0,0,0-1.29-1.16.28.28,0,0,0-.3.12,4.1,4.1,0,0,0-.45,1.71.26.26,0,0,0,.52,0,3.48,3.48,0,0,1,.39-1.44l-.3.12c.4.06.85.22.91.69a1.68,1.68,0,0,1-.33,1.1,1.32,1.32,0,0,1-.33.37,1,1,0,0,1-.16.09c-.08,0-.06,0-.08,0s0,0,0,0a.57.57,0,0,1-.08-.23,3,3,0,0,1,0-1c.05-.34-.48-.34-.52,0"/><path class="cls-3" d="M50.23,100.12c.1,0,0-.31.31-.21,1,1.58-1.26,1.26-.94.53s.42-.63,1-.32"/><path class="cls-3" d="M50.3,100.38a.31.31,0,0,0,.2-.17.76.76,0,0,0,0-.11c0-.06-.21,0-.07.06l-.16-.12a1.28,1.28,0,0,1,.2.47.52.52,0,0,1,0,.13c0,.06,0,0,0,.07s-.06.05,0,0l-.06,0c.06,0-.13,0-.07,0a.59.59,0,0,1-.3,0,.49.49,0,0,1-.18-.11l0,0c0-.06,0,.06,0,0s0,0,0,0a.94.94,0,0,1,.25-.38s0,0,0,0l.1,0a3.13,3.13,0,0,1,.32.15c.31.15.57-.3.27-.46a1.1,1.1,0,0,0-.94-.18,1.21,1.21,0,0,0-.53.75c-.09.45.34.76.74.83a.79.79,0,0,0,1-.63,1.55,1.55,0,0,0-.27-.88.43.43,0,0,0-.55-.09.28.28,0,0,0-.14.16.21.21,0,0,0,0,.11c0,.06.06-.08.11-.09-.32.07-.19.57.15.51"/><path class="cls-3" d="M51.91,102.85c0,.42.21,1.16.84.84.84-.42-1-2.62-.84-.52"/><path class="cls-3" d="M51.64,102.85c0,.6.35,1.36,1.07,1.14a.76.76,0,0,0,.42-1.11,1.32,1.32,0,0,0-.91-.87c-.6-.07-.61.78-.58,1.16s.56.34.53,0a1.46,1.46,0,0,1,0-.59s0,0,0-.07-.06,0,0,0,0,0,0,0,0,0,0,0a.44.44,0,0,1,.11.08,1.28,1.28,0,0,1,.24.32,1.17,1.17,0,0,1,.1.3v.08s0,0,0,.05,0,0,0,0-.05,0,0,0c-.37.27-.49-.33-.49-.59a.27.27,0,0,0-.53,0"/><path class="cls-3" d="M55,102.85c1.89,1.89-2.94.74-.42-.42.21.21.11.42.21.63"/><path class="cls-3" d="M54.77,103a1.73,1.73,0,0,1,.36.48c0-.06,0,0,0,0s0,0,0,0c0-.1,0,0,0,0,0,.07,0,0,0,0s0,0,0,0h0s-.11,0,0,0h-.25c-.07,0,.06,0,0,0a.86.86,0,0,1-.23-.06l-.11,0,0,0c-.07,0,0,0,0,0l-.2-.11c-.06,0,0,0,0,0a.23.23,0,0,1-.07-.07.13.13,0,0,1,0-.07c0-.07,0,0,0,0v0a.34.34,0,0,1,.06-.12,1.75,1.75,0,0,1,.55-.36l-.31,0c.11.13.07.35.14.51a.26.26,0,0,0,.32.19A.27.27,0,0,0,55,103a1.28,1.28,0,0,1-.07-.34,1,1,0,0,0-.21-.4.26.26,0,0,0-.32,0c-.43.19-1,.54-.86,1.09.08.39.52.61.85.73a1.25,1.25,0,0,0,1.1-.07c.41-.32,0-.87-.21-1.15a1.85,1.85,0,0,0-.14-.14.26.26,0,0,0-.37.37"/><path class="cls-3" d="M42.56,111.79c-.53.62-.11,2,.73.73.42-.73.42-2.84-.84-2.52-.94.21-.84,2,0,2.31"/><path class="cls-3" d="M42.33,111.65c-.42.57-.27,2.11.71,1.53s.91-1.88.63-2.7a1.07,1.07,0,0,0-1.88-.34,1.71,1.71,0,0,0,.53,2.4c.31.14.57-.32.26-.46a1.15,1.15,0,0,1-.5-1.33.56.56,0,0,1,1.09-.13,2.54,2.54,0,0,1,0,1.47c0,.16-.42.83-.55.64s0-.62.14-.81-.25-.53-.45-.27"/><path class="cls-3" d="M44.87,111.79c-.11.31-.21,1.25.42,1.36,2,.11-1-4.31-.53-.21"/><path class="cls-3" d="M44.61,111.71a1.91,1.91,0,0,0,0,1.27.85.85,0,0,0,1,.39c.59-.18.61-.86.43-1.35s-.51-1-1-1.09c-.77-.07-.69,1.18-.65,1.62,0,.14,0,.26,0,.39,0,.33.57.34.53,0a5.25,5.25,0,0,1-.05-1.19,1.46,1.46,0,0,1,.06-.23c0-.06,0-.06,0-.06s0,0,0,0-.06,0,0,0c-.09,0,.07,0,0,0a.44.44,0,0,1,.16.12,1.47,1.47,0,0,1,.32.45,1.39,1.39,0,0,1,.15.48.48.48,0,0,1,0,.22s-.06.1,0,.1a.36.36,0,0,1-.5-.06,1.17,1.17,0,0,1,0-.9.27.27,0,0,0-.51-.15"/><path class="cls-3" d="M46.86,113.68c0,.52.63,1.47,1.27,1,1.67-1-1.58-2.84-1.06-.43"/><path class="cls-3" d="M46.6,113.68a1.67,1.67,0,0,0,.56,1.14.92.92,0,0,0,1.21.06,1,1,0,0,0,.31-1.39,1.37,1.37,0,0,0-1.3-.61c-.69.12-.67,1-.56,1.5.07.33.58.19.51-.14a1.27,1.27,0,0,1,0-.67.2.2,0,0,1,.18-.17h.13a.83.83,0,0,1,.21.06,1.27,1.27,0,0,1,.36.26.42.42,0,0,1,0,.63.48.48,0,0,1-.64.14,1.07,1.07,0,0,1-.44-.8c0-.34-.54-.34-.53,0"/><path class="cls-3" d="M47,109.89c0,.53.52,1.58,1.26,1.26,1.68-.83-1.68-3.26-.95-.42"/><path class="cls-3" d="M46.71,109.89c0,.82.77,2,1.69,1.47a1,1,0,0,0,.39-1.46,1.42,1.42,0,0,0-1.3-.76c-.75.12-.59,1.16-.46,1.67.08.32.59.18.51-.15a1.72,1.72,0,0,1-.08-.81.41.41,0,0,1,0-.15c.05,0,0,0,.1,0h.12l.19.08a1.34,1.34,0,0,1,.35.32c.21.27.26.53,0,.75-.54.48-1-.48-1-.93s-.53-.33-.52,0"/><path class="cls-3" d="M44.45,107.69c-.21.52.21,1.47.94.94,1.47-1-2-3.25-1-.63"/><path class="cls-3" d="M44.19,107.62a1.22,1.22,0,0,0,.16,1.08.81.81,0,0,0,1.08.23,1.08,1.08,0,0,0,.49-1.41,1.88,1.88,0,0,0-1-1,.69.69,0,0,0-1,.55,2.12,2.12,0,0,0,.17,1c.11.32.62.18.51-.14a1.71,1.71,0,0,1-.15-.77h0a.17.17,0,0,1,0-.07s0-.06,0,0l0,0s-.05,0,0,0h0s0,0,0,0h.06c.07,0,0,0,.05,0a.33.33,0,0,1,.19.07,1.12,1.12,0,0,1,.42.32.67.67,0,0,1,.18.81c-.09.15-.36.37-.57.24s-.22-.52-.15-.72-.39-.46-.51-.14"/><path class="cls-3" d="M37,110.63c.1,0,.95.52,1.36.63a1.13,1.13,0,0,0-.31-1.89,1.68,1.68,0,0,0-1,1.78"/><path class="cls-3" d="M36.92,110.88a2.45,2.45,0,0,1,.58.3,4.14,4.14,0,0,0,.79.33.23.23,0,0,0,.25-.06,1.44,1.44,0,0,0-.37-2.31c-.32-.19-.88.4-1.05.62a1.88,1.88,0,0,0-.39,1.39c0,.34.56.34.52,0a1.51,1.51,0,0,1,.92-1.56h-.26a.91.91,0,0,1,.26,1.48l.26-.06a5.11,5.11,0,0,1-.82-.37,2,2,0,0,0-.55-.26c-.33-.06-.47.44-.14.5"/><path class="cls-3" d="M29.53,102.75a4.47,4.47,0,0,0,1,2.52A12,12,0,0,0,32.16,107c.63.42,1.26,0,1.78.84,1.79-1.79-1.26-2-2-2.73-.42-.52-1.16-3.68-2.32-1.89"/><path class="cls-3" d="M29.27,102.75a5.47,5.47,0,0,0,1.29,2.91A11,11,0,0,0,32,107.14c.56.47,1.29.2,1.79.84a.27.27,0,0,0,.37,0c1.64-1.77-.59-2.24-1.85-3-.33-.2-.47-.79-.61-1.13a4.92,4.92,0,0,0-.66-1.13c-.54-.68-1.2-.25-1.6.31-.2.27.26.54.45.26.88-1.23,1.49,1.59,2,2,.8.7,3.26.83,1.91,2.28h.37a1.41,1.41,0,0,0-.75-.59,3.13,3.13,0,0,1-1.66-.83,6.05,6.05,0,0,1-1.93-3.44c0-.33-.56-.34-.52,0"/><path class="cls-3" d="M33.1,103.8c0,.42.32,1.15.84,1.15,2.31-.1-1.78-3.46-.84-.73"/><path class="cls-3" d="M32.84,103.8a1.68,1.68,0,0,0,.54,1.21,1.07,1.07,0,0,0,1,.12.74.74,0,0,0,.36-1.12,2.41,2.41,0,0,0-1-1c-.38-.19-.91-.22-1.05.29a1.81,1.81,0,0,0,.13,1c.11.32.61.18.51-.14a2.54,2.54,0,0,1-.13-.45s0-.07,0-.12v-.1a.08.08,0,0,0,0,0c0-.07,0,0,0,0s0,0,0,0,0,0,0,0-.06,0,0,0h0s0,0,0,0h.06l.12,0,.07,0,.13.07a2.11,2.11,0,0,1,.43.37,1.27,1.27,0,0,1,.16.2l.07.11,0,.06c0,.08,0,0,0,0a.38.38,0,0,1,0,.1s0,.08,0,0a.13.13,0,0,1,0,.06s0,0,0,0,0,0,0,0a.22.22,0,0,1-.14.08.64.64,0,0,1-.33,0c-.36,0-.54-.58-.54-.89s-.54-.34-.53,0"/><path class="cls-3" d="M35.83,106.32a1.71,1.71,0,0,0,.84,1.79c.53-.84.32-2.42-.84-1.37"/><path class="cls-3" d="M35.57,106.32a2,2,0,0,0,1,2,.25.25,0,0,0,.36-.09,1.92,1.92,0,0,0,.19-1.71c-.32-.66-1-.34-1.44,0-.26.23.12.6.37.38s.54-.44.64,0a1.53,1.53,0,0,1-.21,1.08l.36-.1a1.47,1.47,0,0,1-.71-1.56c0-.34-.49-.33-.53,0"/><path class="cls-3" d="M40.56,108.21c.53,2,2.21-.1,1-1.57a1.82,1.82,0,0,0-1.26,1.78"/><path class="cls-3" d="M40.31,108.29a1.35,1.35,0,0,0,.67,1,.82.82,0,0,0,.87-.27,2,2,0,0,0,0-2.48.26.26,0,0,0-.3-.11,2.11,2.11,0,0,0-1.45,2,.26.26,0,0,0,.52,0,1.61,1.61,0,0,1,1.07-1.53l-.3-.12a1.56,1.56,0,0,1,.2,1.69c-.06.11-.21.33-.37.31s-.34-.44-.4-.63a.26.26,0,0,0-.5.15"/><path class="cls-3" d="M29.85,98.55c0,.84.73,1.89,1.68,1.26,1.78-1-1.58-3.36-1.37-.63"/><path class="cls-3" d="M29.58,98.55c0,.93.85,2.13,1.9,1.58a1.2,1.2,0,0,0,.71-1.61,1.57,1.57,0,0,0-1.35-.89c-.81,0-1,.91-.94,1.55,0,.33.55.34.52,0s-.05-1,.39-1a1,1,0,0,1,.82.46.59.59,0,0,1-.09.87c-.75.65-1.41-.18-1.43-.93,0-.34-.54-.34-.53,0"/><path class="cls-3" d="M39.62,80.79c-.32.74.52,1.79,1.36,1.26,2.42-1.78-3.36-3.67-1.36-.42"/><path class="cls-3" d="M39.36,80.72a1.34,1.34,0,0,0,.44,1.47,1.13,1.13,0,0,0,1.48,0,1.25,1.25,0,0,0,.43-1.56c-.41-.79-2-1.48-2.65-.6-.38.52,0,1.32.33,1.78.17.28.63,0,.45-.27a2.44,2.44,0,0,1-.39-1s0-.15,0-.13a.31.31,0,0,1,0-.1c0-.08.05-.08.12-.12s0,0,.09,0l.1,0h.29a2.16,2.16,0,0,1,.66.23,1.48,1.48,0,0,1,.47.42.55.55,0,0,1,.08.51,1.09,1.09,0,0,1-.65.63c-.57.17-.94-.61-.77-1.06s-.39-.45-.51-.14"/><path class="cls-3" d="M41.61,84.26c.21,1.26,2.21-.11,1.58-1.05s-1.79.42-1.58,1.26"/><path class="cls-3" d="M41.36,84.33c.29,1.47,2.32.31,2.2-.82a.93.93,0,0,0-1.39-.78,1.79,1.79,0,0,0-.81,1.81c.07.33.57.19.51-.14a1.31,1.31,0,0,1,.42-1.11.43.43,0,0,1,.76.27c.05.53-1,1.41-1.18.63-.07-.33-.58-.19-.51.14"/><path class="cls-3" d="M38.14,88.46a.91.91,0,0,0,1.69.53c1.05-1.37-1.48-2.42-1.26-.53"/><path class="cls-3" d="M37.88,88.46a1.16,1.16,0,0,0,1.39,1.22,1.44,1.44,0,0,0,1-1.61,1.2,1.2,0,0,0-1.16-.9c-.69,0-.91.72-.86,1.29,0,.34.56.34.53,0s0-.72.29-.76a.67.67,0,0,1,.66.4c.18.36-.16.85-.46,1a.63.63,0,0,1-.91-.65c0-.34-.5-.33-.53,0"/><path class="cls-3" d="M39.72,84.79c-.21.31-.42,1.15.21,1.36,1.89.63-.31-4.1-.52-1.05"/><path class="cls-3" d="M39.49,84.65a1.48,1.48,0,0,0-.16,1.29,1,1,0,0,0,1,.53c.65-.08.69-.77.58-1.28a1.92,1.92,0,0,0-.82-1.32c-.74-.35-.9.76-.94,1.23s.5.34.53,0a1.89,1.89,0,0,1,.15-.72c0-.06.06-.06,0,0s0,0,0,0a1.53,1.53,0,0,1,.5.83,1.82,1.82,0,0,1,.08.52.31.31,0,0,1,0,.18.17.17,0,0,1-.06.07c.05,0,0,0,0,0s-.08,0-.1,0a.51.51,0,0,1-.32-.14c-.22-.2,0-.67.09-.88s-.28-.55-.46-.27"/><path class="cls-3" d="M62,103.59c-.21-.11,0-.32-.21-.32s-.1,0-.21.11c-.1,1.05,1.16,1.47,1.37.21.42-1.89-2.21-1-1.37.52"/><path class="cls-3" d="M62.13,103.36c0,.07,0,.07,0,0a.53.53,0,0,0,0-.17.31.31,0,0,0-.27-.18.25.25,0,0,0-.19,0c-.19.11.16,0-.06,0a.41.41,0,0,0-.27.24,1.17,1.17,0,0,0,.47,1.17.81.81,0,0,0,1-.07,1.63,1.63,0,0,0,.43-1.31.89.89,0,0,0-1.39-.68,1.3,1.3,0,0,0-.51,1.83.27.27,0,0,0,.46-.27.76.76,0,0,1,.12-1c.18-.17.52-.29.68-.14s.07,1-.16,1.18a.31.31,0,0,1-.4,0,.75.75,0,0,1-.21-.64l-.07.18c-.1.08,0,0,0,0a.62.62,0,0,0,.17-.11l-.19.08c-.11-.2-.17-.24-.15-.12a.44.44,0,0,0,0,.16.43.43,0,0,0,.21.23c.28.2.54-.26.27-.45"/><path class="cls-3" d="M21.76,82.69c.84,1.46,1.57-.32,1.15-1.37a2,2,0,0,0-1.05,1.79"/><path class="cls-3" d="M21.53,82.82c.3.5.89,1,1.39.41a2.11,2.11,0,0,0,.25-2,.28.28,0,0,0-.39-.16,2.32,2.32,0,0,0-1.17,2c-.05.33.45.47.51.13A1.92,1.92,0,0,1,23,81.54l-.38-.15a1.85,1.85,0,0,1,0,1.23.54.54,0,0,1-.26.36c-.17,0-.37-.34-.43-.43a.26.26,0,0,0-.45.27"/><path class="cls-3" d="M25.12,83.21c-.1.73.52,1.68,1.36,1.26,2.52-1.36-3-2.52-.94-.32"/><path class="cls-3" d="M24.86,83.21a1.58,1.58,0,0,0,.62,1.44,1.19,1.19,0,0,0,1.41-.13c.47-.32.73-.87.28-1.33a2.07,2.07,0,0,0-1.42-.53c-.44,0-1,.19-.95.73a1.77,1.77,0,0,0,.55,1c.24.25.61-.13.37-.37a1.5,1.5,0,0,1-.4-.62c0-.06,0-.09.07-.12a1.56,1.56,0,0,1,1.06.1,2,2,0,0,1,.25.14l.14.13c.08.11.08.14,0,.28a1.13,1.13,0,0,1-.82.43c-.49,0-.67-.72-.63-1.1s-.49-.33-.52,0"/><path class="cls-3" d="M28.37,85.83c-.1.32.32,1,.95,1.37,1.58-1.16-.11-3.47-1.16-1"/><path class="cls-3" d="M28.12,85.77c-.17.67.54,1.38,1.07,1.66a.27.27,0,0,0,.26,0,1.6,1.6,0,0,0,.48-2.26.9.9,0,0,0-1-.3,1.9,1.9,0,0,0-1,1.15c-.14.3.31.57.45.26S29,85,29.53,85.51s.06,1.16-.34,1.46h.26a1.69,1.69,0,0,1-.63-.56c-.09-.12-.24-.34-.19-.5a.26.26,0,0,0-.51-.14"/><path class="cls-3" d="M25.64,87.52c0,.73.63,1.68,1.48,1,1.36-1.16-1.48-2.94-1.58-.53"/><path class="cls-3" d="M25.38,87.52c0,.81.7,1.86,1.63,1.41a1.17,1.17,0,0,0,.61-1.59,1.42,1.42,0,0,0-1.31-.76c-.74.07-1,.82-1,1.46,0,.34.5.34.52,0s.11-.85.54-.94a.87.87,0,0,1,.74.36.62.62,0,0,1-.06.84c-.59.61-1.1-.24-1.11-.78,0-.34-.54-.34-.53,0"/><path class="cls-3" d="M29.63,89.2v.42c.95.42,1.68-.63,1.48-1.58-1.16-.63-2,1-1.26,1.89"/><path class="cls-3" d="M29.9,89.2v-.09a.27.27,0,0,0-.53,0v.51a.28.28,0,0,0,.19.25,1.29,1.29,0,0,0,1.64-.66,1.83,1.83,0,0,0,.2-1c0-.4-.26-.53-.63-.59-1.32-.19-1.81,1.6-1.11,2.47.22.26.58-.11.37-.37-.39-.48-.17-1.51.52-1.58.16,0,.32,0,.33.17a1.25,1.25,0,0,1-.13.6.76.76,0,0,1-1,.42l.19.26v-.51a.27.27,0,0,0-.53,0v.09a.27.27,0,0,0,.53,0"/><path class="cls-3" d="M26.69,92.35c-.52.52-.52,1.78.74,1.68,2.31-.21-.74-3.57-.95-1"/><path class="cls-3" d="M26.51,92.16a1.26,1.26,0,0,0,.37,2.09c.68.21,1.7-.12,1.67-1a1.74,1.74,0,0,0-1.08-1.41c-.81-.33-1.19.56-1.25,1.2,0,.34.49.34.53,0s.13-.84.55-.7a1.24,1.24,0,0,1,.71.8c.13.48-.39.59-.76.59-.71,0-.77-.81-.37-1.24.23-.24-.14-.61-.37-.37"/><path class="cls-3" d="M29.11,94.34c-.1.63.1,1.37.95,1.16,1.68-.63-.32-2.73-1-.84"/><path class="cls-3" d="M28.86,94.28c-.11.67.09,1.46.89,1.52a1.09,1.09,0,0,0,.34-2.15c-.66-.16-1.12.39-1.34.94-.13.32.38.45.51.14s.36-.64.69-.57a.67.67,0,0,1,.5.51c.06.29-.29.57-.59.6-.48.06-.55-.49-.5-.86s-.45-.47-.5-.13"/><path class="cls-3" d="M33.31,90c-.42,1.26,1.37,2.62,2.1,1.15.84-1.68-2.41-2.1-2-.21"/><path class="cls-3" d="M33.06,90a1.69,1.69,0,0,0,1.31,2.11,1.39,1.39,0,0,0,1.4-1.72,1.41,1.41,0,0,0-1.61-.86,1.21,1.21,0,0,0-1,1.55c.07.33.58.19.51-.14a.68.68,0,0,1,.57-.9,1,1,0,0,1,1,.4c.29.49-.28,1.18-.78,1.15a1.15,1.15,0,0,1-.88-1.45.26.26,0,0,0-.51-.14"/><path class="cls-3" d="M39.3,93.4c-.1-.74-.1-1.58.63-2,1,1.26-.63,3-1.15,1.68"/><path class="cls-3" d="M39.55,93.33a1.6,1.6,0,0,1,.51-1.7l-.32,0a1.19,1.19,0,0,1,0,1.42c-.26.4-.6.37-.78-.06s-.58,0-.45.27a.88.88,0,0,0,1.56.22,1.71,1.71,0,0,0,0-2.22.26.26,0,0,0-.32,0,2.11,2.11,0,0,0-.75,2.29c0,.33.55.19.5-.14"/><path class="cls-3" d="M36.36,90.67c-.11.73.63,2,1.36,1.15,1.06-1.15-1.68-2.41-1.57,0"/><path class="cls-3" d="M36.1,90.67c-.08.73.44,1.85,1.32,1.67a1.11,1.11,0,0,0,.68-1.55,1.26,1.26,0,0,0-1.32-.58c-.73.13-.91,1-.9,1.61,0,.34.54.34.53,0s0-.92.4-1.07a.71.71,0,0,1,.76.21c.24.25.11.53-.09.75-.53.55-.9-.68-.86-1s-.49-.33-.52,0"/><path class="cls-3" d="M41.19,89.09c0,.42,0,.74.63.63,1.37-.31,0-3.47-.63-.73"/><path class="cls-3" d="M40.93,89.09a.89.89,0,0,0,.27.81,1,1,0,0,0,1,0,1.22,1.22,0,0,0,.48-1.31c-.06-.39-.3-.88-.74-.94-.62-.08-.86.87-1,1.3s.43.47.5.14a3.27,3.27,0,0,1,.27-.76l.06-.08s.08-.08,0,0,.09,0,0,0,0,0,0,0,0,0,0,0,0,0,0,0,.06.08.06.07a1,1,0,0,1,.15.38.81.81,0,0,1-.14.73.5.5,0,0,1-.45.12c-.06,0-.05,0-.06-.09a.93.93,0,0,1,0-.29.27.27,0,0,0-.53,0"/><path class="cls-3" d="M26.9,97.5c-.1.94.63,1.78,1.48.94,1.25-1.15-1.05-2.52-1.05-.42"/><path class="cls-3" d="M26.64,97.5c-.06.78.43,1.79,1.36,1.5a1.42,1.42,0,0,0,1-1.55,1,1,0,0,0-1-.79c-.69,0-.89.8-.9,1.36a.27.27,0,0,0,.53,0c0-.28,0-.75.37-.83.19,0,.4.15.49.32s-.13.62-.34.82a.49.49,0,0,1-.71.06,1.1,1.1,0,0,1-.23-.89c0-.34-.5-.34-.53,0"/><path class="cls-1" d="M121.27,146l-4.74-7.95c2.06,0,3.23-1.78,3.29-5.57s-2.9-4-2.9-4h-5.39V146h3l-.28-7.18,3.17,7.18Zm-8.07-10.34v-5.07s4.28.06,4.22,0,0,5.07,0,5.07Z"/><path class="cls-1" d="M142.39,128.48h-2.11L137.05,146h2.62l.11-7.29,3.27.61.45,6.46,2.62.22ZM140,136.66l.33-4.56,1.67-.95.55,5.51Z"/><path class="cls-1" d="M97.51,133.64h-2.4v-3.23h-3v3.23l4.73,5.17s1.34,1.39,1.17,2.67S98,145.59,94.5,146s-5.29-6.07-5.29-6.07L92,140l.22,3h3.12s.11-2.29.11-2.39S90.77,136,90.77,136a5.22,5.22,0,0,1-1.56-4c.23-2.39,2.23-5,4.68-4.45s4.12,3.73,3.62,6.07"/><path class="cls-1" d="M137.06,126.93H145a9,9,0,0,0,0-1.37l-7.93-.32s0,1.69,0,1.69"/><path class="cls-1" d="M108.34,146v-4.89l-4.79,2.11v-4.67l3.34.27v-4l-3.34,1.39-.39-5.28,5.18,1.45s-.23-4.06-.23-4-6.84,0-6.84,0V146Z"/><path class="cls-1" d="M124.46,128.4v3.75L127.9,131v15a26.39,26.39,0,0,1,2.95,0l-.67-15.07,3.68,1.5v-4Z"/><path class="cls-1" d="M158.5,139.65c.34-3.74,0-4.69,0-4.69l-.5-1.64c-2.94-7.59-6.23-3.92-7.89-1.13s-.79,14.4,4,13.79c4.15-.53,4.41-4.79,4.4-5.91h0Zm-2.85,2.6-3.73-.28v-9.78l3.84.44-.09,2.33h0v5.11h0Z"/><path class="cls-1" d="M112.36,114.61c.35-3.74,0-4.68,0-4.68l-.5-1.64c-2.95-7.6-6.23-3.93-7.9-1.15s-.78,14.41,4,13.8c4.15-.53,4.4-4.79,4.4-5.91h0Zm-2.85,2.6-3.72-.28v-9.79l3.83.45-.08,2.34h0V115h0Z"/><polygon class="cls-1" points="89.44 120.96 89.2 103.44 90.78 103.44 97.52 119.91 96.65 104.13 97.88 103.73 99.98 120.96 96.81 120.86 91.5 111.15 92.01 120.96 89.44 120.96"/><path class="cls-1" d="M119.17,55.37h-2.11l-3.22,17.52h2.61l.11-7.28,3.28.61.45,6.45,2.61.22Zm-2.38,8.18.33-4.56,1.67-1,.55,5.51Z"/><path class="cls-1" d="M94.54,55.37H92.42L89.2,72.89h2.61l.11-7.28,3.29.61.44,6.45,2.61.22Zm-2.4,8.18L92.48,59l1.67-1,.56,5.51Z"/><path class="cls-1" d="M114,53.76h7.93a8.82,8.82,0,0,0,0-1.36L114,52.08s0,1.68,0,1.68"/><path class="cls-1" d="M135.28,66.54c.35-3.74,0-4.68,0-4.68l-.5-1.65c-3-7.59-6.23-3.92-7.9-1.13s-.78,14.4,4,13.79c4.15-.53,4.4-4.79,4.4-5.9h0Zm-2.85,2.6-3.72-.28V59.08l3.83.44-.09,2.34h0V67h0Z"/><path class="cls-1" d="M110.63,66.7h-2.78l-.06,2.44-3.72-.28V59.08l3.84.44-.39,2.34h3.11l-.5-1.65c-2.95-7.59-6.23-3.92-7.9-1.13-1.54,2.58-.89,12.78,3,13.74l.46,3.13,1.58-.38V72.62c3.65-1.24,3.32-5.92,3.32-5.92"/><path class="cls-1" d="M164.16,98.2l-4.73-8c2.06,0,3.23-1.78,3.28-5.56s-2.89-4-2.89-4h-5.39V98.2h3L157.15,91l3.17,7.17ZM156.1,87.86V82.79s4.28.06,4.22,0,0,5.07,0,5.07Z"/><path class="cls-1" d="M178.55,80.68h-2.1L173.22,98.2h2.61l.11-7.29,3.29.62.44,6.45,2.62.22Zm-2.38,8.18.33-4.56,1.67-1,.56,5.51Z"/><path class="cls-1" d="M147.51,80.68h-2.12L142.17,98.2h2.61l.11-7.29,3.28.62.45,6.45,2.61.22Zm-2.4,8.18.34-4.56,1.66-1,.56,5.51Z"/><path class="cls-1" d="M138.93,89.69c-.66-9-8-9-8-9V98.2s8.62.44,8-8.51m-6,5.89c-.1.22-.5-10.73-.5-10.73l4.12.78.33,8.17a41.34,41.34,0,0,0-4,1.78"/><path class="cls-1" d="M97.51,85.84h-2.4V82.61h-3v3.23L96.89,91s1.34,1.39,1.17,2.67-.06,4.11-3.56,4.5-5.29-6.06-5.29-6.06l2.79.06.22,2.95h3.12s.11-2.29.11-2.4-4.68-4.5-4.68-4.5a5.22,5.22,0,0,1-1.56-4c.23-2.39,2.23-5,4.68-4.45S98,83.5,97.51,85.84"/><path class="cls-1" d="M167.36,80.33v17.8a9.75,9.75,0,0,0,2.16,0c0-.17.5-17.75.5-17.8s-2.66,0-2.66,0"/><path class="cls-1" d="M125.12,80.33v17.8a9.66,9.66,0,0,0,2.15,0c0-.17.52-17.75.52-17.8s-2.67,0-2.67,0"/><path class="cls-1" d="M113.8,80.4V98.2h8.12v-4s-5.73,1-5.73.84.28-14.63.28-14.69-2.67,0-2.67,0"/><path class="cls-1" d="M110.46,91.85c.34-3.74,0-4.69,0-4.69l-.5-1.64c-2.94-7.59-6.23-3.92-7.89-1.14s-.78,14.41,4,13.8c4.15-.53,4.41-4.79,4.4-5.91h0Zm-2.85,2.6-3.73-.28V84.38l3.84.45-.09,2.33h0v5.11h0Z"/><polygon class="cls-1" points="147.51 79.46 145.43 79.46 146.47 76.48 148.61 76.48 147.51 79.46"/></g></svg>